<svg width="1461" height="349" viewBox="0 0 1461 349" fill="none" xmlns="http://www.w3.org/2000/svg">
<g clip-path="url(#clip0_3_2)">
<path d="M17.9148 79L8.41075 74.872L0.92275 67.672L3.99475 63.256L6.58675 64.984L18.0108 21.4H21.1788L31.6428 62.68L33.9468 62.392L41.1468 65.656L85.6908 63.16L115.163 63.544L116.315 62.68L118.811 23.32H134.075L136.091 73.048L133.211 76.984H41.9148L31.3548 79H17.9148ZM26.3628 71.512L31.7388 70.84L19.8348 23.224H19.5468L8.21875 66.136L12.5388 69.016C12.6668 69.144 12.8268 69.272 13.0188 69.4C13.2748 69.464 13.5308 69.56 13.7868 69.688L18.5868 51.64H21.2748L26.3628 71.512ZM18.2028 77.08H31.2588L41.6268 75.064H132.251L134.267 72.28L132.347 25.144H120.635L118.139 63.832L116.219 65.464L85.5948 64.984L40.3788 67.384L33.3708 64.312L32.0268 64.504L33.8508 71.608L32.9868 72.664L24.3468 73.432L20.7948 73.912C19.1948 73.528 17.4028 73.016 15.4188 72.376C13.4988 71.736 12.1548 71.16 11.3868 70.648L4.28275 65.848L3.13075 67.48L9.37075 73.144L18.2028 77.08ZM20.9868 71.992L24.5388 71.704L20.0268 53.56L15.4188 70.264L20.2188 71.8C20.7308 71.928 20.9868 71.992 20.9868 71.992Z" fill="black"/>
<path d="M3.53942 253.897L3.53947 253.898C3.72452 257.571 4.34637 260.541 5.41785 262.796C6.48594 265.043 7.89521 266.737 9.65197 267.861C11.3432 268.943 13.2593 269.651 15.3965 269.989C15.46 270.57 15.5883 271.213 15.7797 271.917C15.9987 272.722 16.3568 273.411 16.8579 273.976C17.386 274.599 18.1176 274.902 19.0197 274.902C19.9202 274.902 20.6414 274.6 21.1444 273.973C21.6435 273.409 22.0005 272.723 22.2192 271.921C22.4341 271.218 22.5658 270.573 22.611 269.988C24.7704 269.65 26.6972 268.942 28.3875 267.861C30.1442 266.737 31.5535 265.043 32.6216 262.796C33.6934 260.54 34.302 257.57 34.4606 253.897C34.4606 253.897 34.4606 253.896 34.4606 253.896L35.2497 237.012L35.262 236.75H35H3H2.73804L2.75027 237.012L3.53942 253.897ZM26.4907 267.463L26.4907 267.463L26.4872 267.465C24.4782 268.431 21.9924 268.921 19.0197 268.921C16.0473 268.921 13.5477 268.431 11.5117 267.464L11.5093 267.463C9.48774 266.529 7.92259 264.972 6.81431 262.777C5.73064 260.578 5.09011 257.615 4.90692 253.873L4.90688 253.873L4.09182 238.05H33.9082L33.0931 253.873L33.0931 253.873C32.9099 257.616 32.2562 260.578 31.1467 262.776L31.1457 262.778C30.0637 264.972 28.512 266.529 26.4907 267.463ZM20.468 272.634L20.4679 272.634L20.4624 272.643C20.0438 273.343 19.5614 273.642 19.0197 273.642C18.4762 273.642 17.9795 273.34 17.5342 272.638L17.5342 272.638L17.532 272.634C17.1277 272.02 16.8993 271.188 16.8669 270.12C17.1166 270.134 17.4114 270.141 17.7504 270.141C18.2499 270.167 18.6733 270.181 19.0197 270.181C19.3402 270.181 19.7506 270.167 20.2496 270.141C20.5983 270.141 20.8933 270.134 21.1331 270.121C21.1006 271.188 20.8721 272.02 20.468 272.634ZM3.53942 307.245L3.53947 307.246C3.72452 310.918 4.34637 313.889 5.41785 316.143C6.48594 318.391 7.89521 320.085 9.65197 321.208C11.3432 322.29 13.2593 322.999 15.3965 323.336C15.46 323.918 15.5883 324.561 15.7797 325.265C15.9987 326.07 16.3568 326.758 16.8579 327.323C17.386 327.947 18.1176 328.25 19.0197 328.25C19.9202 328.25 20.6414 327.948 21.1444 327.321C21.6434 326.757 22.0005 326.071 22.2192 325.269C22.4341 324.566 22.5658 323.921 22.611 323.335C24.7704 322.998 26.6972 322.289 28.3875 321.208C30.1442 320.085 31.5535 318.391 32.6216 316.143C33.6934 313.888 34.302 310.917 34.4606 307.244C34.4606 307.244 34.4606 307.244 34.4606 307.244L35.2497 290.359L35.262 290.098H35H3H2.73804L2.75027 290.359L3.53942 307.245ZM26.4907 320.811L26.4872 320.812C24.4782 321.779 21.9924 322.268 19.0197 322.268C16.0473 322.268 13.5477 321.779 11.5117 320.812L11.5093 320.811C9.48781 319.877 7.9227 318.32 6.81443 316.125C5.73069 313.926 5.09012 310.963 4.90692 307.221L4.90688 307.22L4.09182 291.398H33.9082L33.0931 307.22L33.0931 307.221C32.9099 310.963 32.2562 313.926 31.1467 316.123L31.1457 316.126C30.0637 318.32 28.512 319.877 26.4907 320.811ZM20.468 325.982L20.4679 325.982L20.4624 325.991C20.0438 326.69 19.5614 326.99 19.0197 326.99C18.4762 326.99 17.9795 326.688 17.5342 325.986L17.532 325.982C17.1277 325.367 16.8993 324.535 16.8669 323.467C17.1166 323.481 17.4115 323.488 17.7505 323.488C18.25 323.515 18.6734 323.528 19.0197 323.528C19.3402 323.528 19.7506 323.515 20.2495 323.488C20.5982 323.488 20.8933 323.482 21.1331 323.468C21.1006 324.536 20.8721 325.367 20.468 325.982Z" fill="black" stroke="black" stroke-width="0.5"/>
<path d="M274.454 113V108.68L282.518 107.24L283.862 106.376C283.798 106.12 283.766 105.768 283.766 105.32C283.766 102.696 285.91 100.424 290.198 98.504L285.014 79.688C284.95 79.368 284.822 78.824 284.63 78.056C284.502 77.288 284.438 76.712 284.438 76.328C284.438 74.664 284.95 73.128 285.974 71.72C286.998 70.248 288.502 69.512 290.486 69.512C291.446 69.512 292.438 69.736 293.462 70.184C294.486 70.568 295.35 71.176 296.054 72.008L310.454 88.136L311.894 79.304L306.326 55.4L281.366 64.328L278.198 62.312L277.43 58.952L295.382 36.488L298.934 34.76H306.998L308.246 38.408L306.518 41.864L298.838 42.92C297.942 44.136 296.726 45.736 295.19 47.72C293.654 49.64 292.15 51.496 290.678 53.288L301.718 46.952C302.806 46.056 303.99 45.288 305.27 44.648C306.614 44.008 308.342 43.432 310.454 42.92L315.638 41.672L315.062 39.176L311.126 40.616L308.822 34.568L305.846 34.376L310.646 23.816L310.838 22.568C311.35 20.712 312.246 19.304 313.526 18.344C314.806 17.384 316.694 16.904 319.19 16.904C321.494 16.904 323.638 17.288 325.622 18.056C327.606 18.824 329.206 19.912 330.422 21.32C331.638 22.728 332.246 24.424 332.246 26.408C332.246 28.2 331.702 29.96 330.614 31.688C329.59 33.416 328.214 35.464 326.486 37.832V41.48L336.374 43.88C338.038 44.264 339.094 45.064 339.542 46.28C340.054 47.496 340.438 48.552 340.694 49.448L347.51 72.68L344.054 89.576V98.984L340.118 100.232V101.48L336.086 102.344V95.048L337.622 90.92L338.966 72.776L333.11 55.016L329.174 70.184L328.022 85.448L329.942 85.64V103.88L334.742 107.24L342.806 108.68V113H334.262L321.302 109.352L302.294 112.136C299.798 112.52 297.622 112.776 295.766 112.904C293.974 112.968 292.918 113 292.598 113C290.614 113 288.918 112.584 287.51 111.752L282.998 113H274.454ZM325.334 36.68C326.614 34.888 327.766 33.128 328.79 31.4C329.878 29.608 330.422 27.816 330.422 26.024C330.422 24.36 329.782 22.984 328.502 21.896C327.222 20.808 325.718 20.008 323.99 19.496C322.262 18.984 320.694 18.728 319.286 18.728C317.686 18.728 316.278 19.048 315.062 19.688C313.846 20.328 312.982 21.384 312.47 22.856L319.958 27.08C320.278 26.824 320.63 26.6 321.014 26.408C321.398 26.216 321.814 26.12 322.262 26.12C323.094 26.12 323.734 26.44 324.182 27.08C324.694 27.656 324.95 28.296 324.95 29C324.95 29.448 324.79 29.992 324.47 30.632C324.15 31.208 323.83 31.688 323.51 32.072L322.07 33.8L325.334 36.68ZM337.622 100.616L338.87 100.328V98.888L342.134 97.832V90.152L345.686 72.296L339.158 50.12C338.902 49.224 338.55 48.296 338.102 47.336C337.654 46.376 336.982 45.768 336.086 45.512L324.758 42.728V38.216L320.054 34.28L322.166 31.304C322.422 30.984 322.646 30.632 322.838 30.248C323.094 29.8 323.222 29.448 323.222 29.192C323.222 29 323.158 28.744 323.03 28.424C322.966 28.04 322.678 27.848 322.166 27.848C321.526 27.848 320.854 28.232 320.15 29L311.99 24.392L308.15 33.128L309.974 33.224L311.894 38.504L316.214 37.064L317.75 43.016L310.358 44.552C309.142 44.808 307.766 45.288 306.23 45.992C304.694 46.632 303.574 47.4 302.87 48.296L288.278 55.976L287.606 54.824L297.782 41.288L305.366 40.424C305.43 40.232 305.526 40.008 305.654 39.752C305.846 39.432 306.07 38.952 306.326 38.312C306.262 37.992 306.134 37.672 305.942 37.352C305.814 37.032 305.718 36.712 305.654 36.392H299.414L296.822 37.832C295.478 39.56 293.942 41.512 292.214 43.688C290.486 45.8 288.726 47.944 286.934 50.12C285.206 52.232 283.67 54.12 282.326 55.784C280.982 57.384 280.054 58.504 279.542 59.144L279.734 61.064L282.038 62.312L307.67 53L313.718 79.208L312.086 88.712L326.294 85.544L327.542 69.704L331.862 53.288L334.07 53.384L340.886 72.872L339.158 91.112L337.622 95.144V100.616ZM314.294 29.864C313.59 29.864 312.982 29.768 312.47 29.576C311.958 29.32 311.478 29.032 311.03 28.712C311.35 28.328 311.798 28.072 312.374 27.944C313.014 27.816 313.398 27.752 313.526 27.752C314.742 27.752 315.766 28.392 316.598 29.672C316.15 29.736 315.734 29.8 315.35 29.864C314.966 29.864 314.614 29.864 314.294 29.864ZM291.83 97.736L296.054 95.624L290.198 77.96L292.982 71.912C292.214 71.528 291.35 71.336 290.39 71.336C289.174 71.336 288.182 71.816 287.414 72.776C286.646 73.672 286.262 74.856 286.262 76.328C286.262 76.776 286.326 77.32 286.454 77.96C286.646 78.536 286.806 79.08 286.934 79.592L291.83 97.736ZM297.782 94.856L309.686 89.48L294.422 72.68L292.118 77.864L297.782 94.856ZM294.134 105.32L328.31 103.4V87.08H327.542L311.222 90.536L290.102 100.328L294.134 105.32ZM334.55 111.176H340.982V109.832L334.07 108.968L328.502 105.032L293.174 106.952L288.374 101.192C286.518 102.088 285.59 103.4 285.59 105.128C285.59 106.728 285.974 107.976 286.742 108.872C287.574 109.704 288.534 110.28 289.622 110.6C290.774 110.92 291.798 111.08 292.694 111.08C293.782 111.08 295.286 111.016 297.206 110.888C299.19 110.76 300.918 110.6 302.39 110.408L322.262 107.72L334.55 111.176ZM276.278 111.176H282.71L285.686 110.408C285.046 109.704 284.598 108.968 284.342 108.2L283.19 108.968L276.278 109.832V111.176Z" fill="black"/>
<path d="M403.454 328V323.68L411.518 322.24L412.862 321.376C412.798 321.12 412.766 320.768 412.766 320.32C412.766 317.696 414.91 315.424 419.198 313.504L414.014 294.688C413.95 294.368 413.822 293.824 413.63 293.056C413.502 292.288 413.438 291.712 413.438 291.328C413.438 289.664 413.95 288.128 414.974 286.72C415.998 285.248 417.502 284.512 419.486 284.512C420.446 284.512 421.438 284.736 422.462 285.184C423.486 285.568 424.35 286.176 425.054 287.008L439.454 303.136L440.894 294.304L435.326 270.4L410.366 279.328L407.198 277.312L406.43 273.952L424.382 251.488L427.934 249.76H435.998L437.246 253.408L435.518 256.864L427.838 257.92C426.942 259.136 425.726 260.736 424.19 262.72C422.654 264.64 421.15 266.496 419.678 268.288L430.718 261.952C431.806 261.056 432.99 260.288 434.27 259.648C435.614 259.008 437.342 258.432 439.454 257.92L444.638 256.672L444.062 254.176L440.126 255.616L437.822 249.568L434.846 249.376L439.646 238.816L439.838 237.568C440.35 235.712 441.246 234.304 442.526 233.344C443.806 232.384 445.694 231.904 448.19 231.904C450.494 231.904 452.638 232.288 454.622 233.056C456.606 233.824 458.206 234.912 459.422 236.32C460.638 237.728 461.246 239.424 461.246 241.408C461.246 243.2 460.702 244.96 459.614 246.688C458.59 248.416 457.214 250.464 455.486 252.832V256.48L465.374 258.88C467.038 259.264 468.094 260.064 468.542 261.28C469.054 262.496 469.438 263.552 469.694 264.448L476.51 287.68L473.054 304.576V313.984L469.118 315.232V316.48L465.086 317.344V310.048L466.622 305.92L467.966 287.776L462.11 270.016L458.174 285.184L457.022 300.448L458.942 300.64V318.88L463.742 322.24L471.806 323.68V328H463.262L450.302 324.352L431.294 327.136C428.798 327.52 426.622 327.776 424.766 327.904C422.974 327.968 421.918 328 421.598 328C419.614 328 417.918 327.584 416.51 326.752L411.998 328H403.454ZM454.334 251.68C455.614 249.888 456.766 248.128 457.79 246.4C458.878 244.608 459.422 242.816 459.422 241.024C459.422 239.36 458.782 237.984 457.502 236.896C456.222 235.808 454.718 235.008 452.99 234.496C451.262 233.984 449.694 233.728 448.286 233.728C446.686 233.728 445.278 234.048 444.062 234.688C442.846 235.328 441.982 236.384 441.47 237.856L448.958 242.08C449.278 241.824 449.63 241.6 450.014 241.408C450.398 241.216 450.814 241.12 451.262 241.12C452.094 241.12 452.734 241.44 453.182 242.08C453.694 242.656 453.95 243.296 453.95 244C453.95 244.448 453.79 244.992 453.47 245.632C453.15 246.208 452.83 246.688 452.51 247.072L451.07 248.8L454.334 251.68ZM466.622 315.616L467.87 315.328V313.888L471.134 312.832V305.152L474.686 287.296L468.158 265.12C467.902 264.224 467.55 263.296 467.102 262.336C466.654 261.376 465.982 260.768 465.086 260.512L453.758 257.728V253.216L449.054 249.28L451.166 246.304C451.422 245.984 451.646 245.632 451.838 245.248C452.094 244.8 452.222 244.448 452.222 244.192C452.222 244 452.158 243.744 452.03 243.424C451.966 243.04 451.678 242.848 451.166 242.848C450.526 242.848 449.854 243.232 449.15 244L440.99 239.392L437.15 248.128L438.974 248.224L440.894 253.504L445.214 252.064L446.75 258.016L439.358 259.552C438.142 259.808 436.766 260.288 435.23 260.992C433.694 261.632 432.574 262.4 431.87 263.296L417.278 270.976L416.606 269.824L426.782 256.288L434.366 255.424C434.43 255.232 434.526 255.008 434.654 254.752C434.846 254.432 435.07 253.952 435.326 253.312C435.262 252.992 435.134 252.672 434.942 252.352C434.814 252.032 434.718 251.712 434.654 251.392H428.414L425.822 252.832C424.478 254.56 422.942 256.512 421.214 258.688C419.486 260.8 417.726 262.944 415.934 265.12C414.206 267.232 412.67 269.12 411.326 270.784C409.982 272.384 409.054 273.504 408.542 274.144L408.734 276.064L411.038 277.312L436.67 268L442.718 294.208L441.086 303.712L455.294 300.544L456.542 284.704L460.862 268.288L463.07 268.384L469.886 287.872L468.158 306.112L466.622 310.144V315.616ZM443.294 244.864C442.59 244.864 441.982 244.768 441.47 244.576C440.958 244.32 440.478 244.032 440.03 243.712C440.35 243.328 440.798 243.072 441.374 242.944C442.014 242.816 442.398 242.752 442.526 242.752C443.742 242.752 444.766 243.392 445.598 244.672C445.15 244.736 444.734 244.8 444.35 244.864C443.966 244.864 443.614 244.864 443.294 244.864ZM420.83 312.736L425.054 310.624L419.198 292.96L421.982 286.912C421.214 286.528 420.35 286.336 419.39 286.336C418.174 286.336 417.182 286.816 416.414 287.776C415.646 288.672 415.262 289.856 415.262 291.328C415.262 291.776 415.326 292.32 415.454 292.96C415.646 293.536 415.806 294.08 415.934 294.592L420.83 312.736ZM426.782 309.856L438.686 304.48L423.422 287.68L421.118 292.864L426.782 309.856ZM423.134 320.32L457.31 318.4V302.08H456.542L440.222 305.536L419.102 315.328L423.134 320.32ZM463.55 326.176H469.982V324.832L463.07 323.968L457.502 320.032L422.174 321.952L417.374 316.192C415.518 317.088 414.59 318.4 414.59 320.128C414.59 321.728 414.974 322.976 415.742 323.872C416.574 324.704 417.534 325.28 418.622 325.6C419.774 325.92 420.798 326.08 421.694 326.08C422.782 326.08 424.286 326.016 426.206 325.888C428.19 325.76 429.918 325.6 431.39 325.408L451.262 322.72L463.55 326.176ZM405.278 326.176H411.71L414.686 325.408C414.046 324.704 413.598 323.968 413.342 323.2L412.19 323.968L405.278 324.832V326.176Z" fill="black"/>
<path d="M523.307 114.344L521.003 111.464L519.179 113H504.107L502.859 111.848L501.707 113H484.715L483.563 111.848L481.835 113.192H480.203L482.603 109.352C484.395 108.904 486.379 108.584 488.555 108.392C490.731 108.136 492.523 108.008 493.931 108.008C494.443 108.008 495.179 107.848 496.139 107.528C497.163 107.208 497.899 106.536 498.347 105.512C498.795 104.424 499.339 103.048 499.979 101.384C500.619 99.656 501.259 97.928 501.899 96.2C502.539 94.472 503.051 93.032 503.435 91.88C503.883 90.664 504.107 90.056 504.107 90.056C503.531 88.84 502.763 87.464 501.803 85.928C500.907 84.392 499.915 82.92 498.827 81.512C497.803 80.104 496.811 79.016 495.851 78.248C494.443 77.608 493.099 77.032 491.819 76.52C490.603 75.944 489.675 75.464 489.035 75.08C488.203 74.568 486.859 73.736 485.003 72.584C483.211 71.368 481.323 69.832 479.339 67.976C477.355 66.12 475.659 63.944 474.251 61.448C472.907 58.888 472.235 56.04 472.235 52.904C472.235 51.112 472.395 49.416 472.715 47.816C473.035 46.152 473.323 44.616 473.579 43.208C473.835 42.184 474.027 41.256 474.155 40.424C474.347 39.592 474.443 38.888 474.443 38.312C474.443 37.032 473.931 35.88 472.907 34.856C471.947 33.832 470.155 33.32 467.531 33.32C466.123 33.32 465.131 33.384 464.555 33.512C464.043 33.64 463.755 33.96 463.691 34.472L460.235 34.376V32.648C460.235 31.048 461.195 29.704 463.115 28.616C465.099 27.464 467.531 26.888 470.411 26.888H471.371C471.691 26.44 472.331 25.768 473.291 24.872C474.315 23.976 475.595 23.432 477.131 23.24L486.251 22.856C486.827 22.856 487.467 22.792 488.171 22.664C488.875 22.536 489.451 22.248 489.899 21.8C490.475 21.288 491.307 20.264 492.395 18.728C493.483 17.192 494.283 15.72 494.795 14.312H496.715C496.907 14.888 497.099 15.72 497.291 16.808C497.547 17.896 497.675 19.08 497.675 20.36C497.675 21.64 497.291 22.984 496.523 24.392C495.755 25.736 494.795 27.016 493.643 28.232C492.555 29.384 491.499 30.344 490.475 31.112C490.539 31.624 490.635 32.552 490.763 33.896C490.891 35.24 491.083 36.744 491.339 38.408C491.595 40.008 491.883 41.512 492.203 42.92C492.523 44.328 492.907 45.384 493.355 46.088C494.251 47.176 495.659 48.232 497.579 49.256C499.499 50.28 501.611 51.272 503.915 52.232C506.219 53.128 508.395 53.928 510.443 54.632C511.595 55.08 512.683 55.496 513.707 55.88C514.795 56.264 515.691 56.616 516.395 56.936C517.803 57.576 519.691 58.6 522.059 60.008C524.491 61.416 526.891 62.856 529.259 64.328C531.499 65.672 533.547 66.888 535.403 67.976C537.323 69.064 538.699 69.8 539.531 70.184C540.555 70.568 542.219 71.176 544.523 72.008C546.827 72.776 549.355 73.64 552.107 74.6C554.923 75.56 557.483 76.424 559.787 77.192L559.499 80.36L549.995 80.264L558.539 84.968L551.915 96.392L536.747 87.56C535.595 86.856 534.187 86.152 532.523 85.448C530.859 84.68 529.451 84.296 528.299 84.296C527.595 84.296 526.603 84.328 525.323 84.392C524.043 84.456 522.955 84.552 522.059 84.68C523.019 87.176 524.011 89.704 525.035 92.264L523.211 107.336L526.667 111.656L523.307 114.344ZM523.691 112.04L524.459 111.464L521.387 107.528L523.019 92.552L519.467 83.048C520.619 82.92 522.059 82.792 523.787 82.664C525.579 82.536 527.083 82.472 528.299 82.472C529.579 82.472 531.147 82.888 533.003 83.72C534.859 84.488 536.395 85.224 537.611 85.928C539.979 87.336 542.251 88.68 544.427 89.96C546.603 91.176 548.875 92.456 551.243 93.8C552.779 91.176 554.347 88.488 555.947 85.736L546.059 80.168C535.947 80.04 527.339 79.336 520.235 78.056C513.131 76.712 506.923 75.112 501.611 73.256C498.539 72.168 495.595 70.888 492.779 69.416C489.963 67.88 487.435 66.312 485.195 64.712C483.019 63.112 481.291 61.576 480.011 60.104C478.795 58.632 478.187 57.416 478.187 56.456C478.187 55.304 478.699 54.376 479.723 53.672C480.747 52.968 481.963 52.424 483.371 52.04C484.779 51.592 486.059 51.272 487.211 51.08C488.427 50.888 489.163 50.792 489.419 50.792L489.707 52.616C489.451 52.68 488.811 52.808 487.787 53C486.827 53.128 485.739 53.352 484.523 53.672C483.371 53.928 482.347 54.28 481.451 54.728C480.555 55.176 480.107 55.752 480.107 56.456C480.107 57.224 480.715 58.248 481.931 59.528C483.147 60.744 484.779 62.088 486.827 63.56C488.939 64.968 491.307 66.344 493.931 67.688C496.619 69.032 499.403 70.248 502.283 71.336C509.387 73.896 516.139 75.656 522.539 76.616C529.003 77.512 535.179 78.024 541.067 78.152C547.019 78.28 552.715 78.472 558.155 78.728L558.251 78.344C557.483 78.088 556.171 77.672 554.315 77.096C552.523 76.52 550.571 75.912 548.459 75.272C546.411 74.568 544.491 73.928 542.699 73.352C540.907 72.712 539.627 72.232 538.859 71.912C538.027 71.528 536.619 70.792 534.635 69.704C532.715 68.552 530.603 67.272 528.299 65.864C525.931 64.392 523.531 62.984 521.099 61.64C518.731 60.232 516.907 59.24 515.627 58.664C515.051 58.344 514.251 58.024 513.227 57.704C512.203 57.32 511.051 56.904 509.771 56.456C507.659 55.688 505.419 54.824 503.051 53.864C500.683 52.904 498.475 51.88 496.427 50.792C494.443 49.64 492.907 48.424 491.819 47.144C491.307 46.376 490.827 45.032 490.379 43.112C489.931 41.192 489.547 39.048 489.227 36.68C488.971 34.312 488.747 32.136 488.555 30.152C489.579 29.512 490.635 28.68 491.723 27.656C492.875 26.568 493.835 25.416 494.603 24.2C495.371 22.92 495.755 21.64 495.755 20.36C495.755 19.656 495.723 19.08 495.659 18.632C495.659 18.12 495.627 17.672 495.563 17.288C494.923 18.504 494.155 19.688 493.259 20.84C492.363 21.992 491.659 22.792 491.147 23.24C490.443 23.88 489.611 24.296 488.651 24.488C487.755 24.68 486.955 24.776 486.251 24.776L477.323 25.064C476.363 25.256 475.435 25.736 474.539 26.504C473.643 27.272 472.939 28.008 472.427 28.712H470.411C468.107 28.712 466.123 29.096 464.459 29.864C462.859 30.568 462.027 31.464 461.963 32.552H462.059C462.571 31.656 463.307 30.984 464.267 30.536C465.227 30.024 466.283 29.768 467.435 29.768C468.523 29.768 469.931 29.96 471.659 30.344L471.563 31.208C470.667 31.08 469.899 30.984 469.259 30.92C468.619 30.792 468.011 30.728 467.435 30.728C466.539 30.728 465.707 30.888 464.939 31.208C464.171 31.464 463.563 31.912 463.115 32.552H463.307C463.883 31.784 465.291 31.4 467.531 31.4C470.795 31.4 473.067 32.104 474.347 33.512C475.691 34.856 476.363 36.456 476.363 38.312C476.363 38.952 476.267 39.752 476.075 40.712C475.947 41.608 475.755 42.6 475.499 43.688V43.592C475.243 45 474.955 46.504 474.635 48.104C474.315 49.704 474.155 51.304 474.155 52.904C474.155 55.656 474.763 58.184 475.979 60.488C477.259 62.792 478.795 64.84 480.587 66.632C482.443 68.36 484.203 69.8 485.867 70.952C487.595 72.104 488.939 72.968 489.899 73.544C490.539 73.864 491.563 74.344 492.971 74.984C494.379 75.56 495.915 76.2 497.579 76.904C499.307 77.608 500.971 78.28 502.571 78.92C504.043 79.432 505.451 79.976 506.795 80.552C508.139 81.064 509.035 81.448 509.483 81.704C510.123 82.024 511.083 82.792 512.363 84.008C513.707 85.224 515.115 86.6 516.587 88.136C518.123 89.672 519.499 91.112 520.715 92.456L519.563 105.32C519.435 107.304 518.763 108.584 517.547 109.16C516.395 109.672 515.371 109.928 514.475 109.928C514.539 109.928 513.899 109.96 512.555 110.024C511.275 110.024 509.835 110.088 508.235 110.216C506.635 110.28 505.323 110.44 504.299 110.696L504.875 111.176L518.507 111.08C518.699 110.952 519.083 110.664 519.659 110.216C520.299 109.768 520.843 109.352 521.291 108.968L523.691 112.04ZM477.227 31.304C476.587 31.304 476.043 31.08 475.595 30.632C475.147 30.184 474.923 29.64 474.923 29C474.923 28.296 475.147 27.752 475.595 27.368C476.043 26.92 476.587 26.696 477.227 26.696C477.867 26.696 478.411 26.92 478.859 27.368C479.307 27.752 479.531 28.296 479.531 29C479.531 29.64 479.307 30.184 478.859 30.632C478.411 31.08 477.867 31.304 477.227 31.304ZM477.227 29.864C477.803 29.864 478.091 29.576 478.091 29C478.091 28.424 477.803 28.136 477.227 28.136C476.651 28.136 476.363 28.424 476.363 29C476.363 29.576 476.651 29.864 477.227 29.864ZM485.387 111.176L500.747 111.08L502.571 109.64L501.803 107.528C502.379 105.8 503.179 103.72 504.203 101.288C505.227 98.792 506.283 96.424 507.371 94.184C508.459 91.944 509.387 90.248 510.155 89.096L508.523 83.336C508.075 83.144 507.243 82.824 506.027 82.376C504.811 81.864 503.435 81.288 501.899 80.648L499.883 79.88C501.163 81.48 502.379 83.272 503.531 85.256C504.683 87.176 505.579 88.776 506.219 90.056C506.219 90.056 505.963 90.696 505.451 91.976C505.003 93.192 504.427 94.664 503.723 96.392C503.083 98.12 502.443 99.784 501.803 101.384C501.227 102.984 500.779 104.2 500.459 105.032C499.627 107.208 498.539 108.584 497.195 109.16C495.915 109.672 494.827 109.928 493.931 109.928C493.995 109.928 493.451 109.96 492.299 110.024C491.211 110.024 489.931 110.088 488.459 110.216C487.051 110.28 485.835 110.44 484.811 110.696L485.387 111.176ZM504.107 109.064C505.835 108.744 507.691 108.488 509.675 108.296C511.659 108.104 513.259 108.008 514.475 108.008C514.987 108.008 515.627 107.88 516.395 107.624C517.227 107.304 517.675 106.536 517.739 105.32L518.891 93.032C517.867 91.944 516.587 90.632 515.051 89.096C513.579 87.56 512.235 86.28 511.019 85.256L512.267 89.576C511.627 90.408 510.827 91.752 509.867 93.608C508.971 95.4 508.043 97.32 507.083 99.368C506.187 101.416 505.419 103.272 504.779 104.936L503.819 107.432L504.107 109.064Z" fill="black"/>
<path d="M276.002 329C274.658 329 273.762 328.584 273.314 327.752C272.93 326.856 272.738 325.448 272.738 323.528V318.152C272.738 317.256 272.61 316.072 272.354 314.6C272.098 313.064 271.618 311.56 270.914 310.088C270.21 308.552 269.122 307.272 267.65 306.248C266.242 305.224 264.386 304.712 262.082 304.712C260.546 304.712 259.042 305.256 257.57 306.344C256.098 307.432 254.914 308.552 254.018 309.704C253.378 310.664 252.77 311.4 252.194 311.912C251.682 312.424 251.138 312.68 250.562 312.68C249.922 312.68 249.442 312.424 249.122 311.912C248.802 311.4 248.642 310.92 248.642 310.472C248.642 309.576 249.09 308.456 249.986 307.112C250.242 306.664 250.882 305.864 251.906 304.712C252.93 303.56 254.306 302.472 256.034 301.448C257.762 300.424 259.746 299.912 261.986 299.912C265.122 299.912 267.554 300.456 269.281 301.544C271.074 302.632 272.386 303.752 273.218 304.904C273.218 303.112 272.866 301.256 272.161 299.336C271.522 297.352 270.402 295.688 268.802 294.344C267.202 292.936 264.962 292.232 262.082 292.232C260.162 292.232 258.53 292.808 257.186 293.96C255.906 295.048 254.722 296.328 253.634 297.8C253.186 298.44 252.706 298.984 252.194 299.432C251.682 299.88 251.138 300.104 250.562 300.104C249.922 300.104 249.442 299.88 249.122 299.432C248.802 298.92 248.642 298.44 248.642 297.992C248.642 297.096 249.09 295.976 249.986 294.632C250.242 294.184 250.882 293.384 251.906 292.232C252.93 291.08 254.306 289.992 256.034 288.968C257.762 287.944 259.746 287.432 261.986 287.432C265.186 287.432 267.714 287.976 269.57 289.064C271.49 290.152 272.898 291.304 273.794 292.52V245.384C273.794 244.296 273.698 243.144 273.506 241.928C273.314 240.648 272.834 239.56 272.066 238.664C271.362 237.768 270.178 237.32 268.514 237.32C266.914 237.32 265.698 237.832 264.866 238.856C264.034 239.816 263.426 240.904 263.042 242.12C262.722 243.336 262.53 244.264 262.466 244.904C262.466 245.608 262.306 246.344 261.986 247.112C261.666 247.88 261.026 248.264 260.066 248.264C259.234 248.264 258.69 247.976 258.434 247.4C258.178 246.76 258.049 246.024 258.049 245.192C258.049 244.68 258.178 243.784 258.434 242.504C258.69 241.16 259.17 239.752 259.874 238.28C260.578 236.744 261.602 235.464 262.946 234.44C264.354 233.352 266.21 232.808 268.514 232.808C274.978 232.808 278.21 236.84 278.21 244.904V292.52C279.17 291.304 280.578 290.152 282.434 289.064C284.354 287.976 286.882 287.432 290.018 287.432C292.322 287.432 294.306 287.944 295.97 288.968C297.698 289.992 299.074 291.08 300.098 292.232C301.186 293.384 301.858 294.184 302.114 294.632C303.01 295.976 303.458 297.096 303.458 297.992C303.458 298.44 303.266 298.92 302.882 299.432C302.498 299.88 302.018 300.104 301.442 300.104C300.866 300.104 300.322 299.848 299.81 299.336C299.298 298.76 298.69 298.024 297.986 297.128C297.346 296.168 296.354 295.112 295.01 293.96C293.666 292.808 291.97 292.232 289.922 292.232C287.106 292.232 284.898 292.936 283.298 294.344C281.698 295.688 280.546 297.352 279.842 299.336C279.202 301.256 278.85 303.112 278.786 304.904C279.682 303.752 280.994 302.632 282.722 301.544C284.514 300.456 286.946 299.912 290.018 299.912C292.322 299.912 294.306 300.424 295.97 301.448C297.698 302.472 299.074 303.56 300.098 304.712C301.186 305.864 301.858 306.664 302.114 307.112C303.01 308.456 303.458 309.576 303.458 310.472C303.458 310.92 303.266 311.4 302.882 311.912C302.498 312.424 302.018 312.68 301.442 312.68C300.866 312.68 300.322 312.424 299.81 311.912C299.298 311.4 298.69 310.664 297.986 309.704C297.346 308.744 296.354 307.688 295.01 306.536C293.666 305.32 291.97 304.712 289.922 304.712C287.618 304.712 285.762 305.224 284.354 306.248C282.946 307.272 281.89 308.552 281.186 310.088C280.482 311.56 280.002 313.064 279.746 314.6C279.49 316.072 279.362 317.256 279.362 318.152V323.528C279.362 325.448 279.138 326.856 278.69 327.752C278.306 328.584 277.41 329 276.002 329ZM276.002 327.272C276.706 327.272 277.154 326.984 277.346 326.408C277.538 325.768 277.634 324.808 277.634 323.528V318.152C277.634 317.128 277.762 315.784 278.018 314.12C278.338 312.456 278.914 310.76 279.746 309.032C280.578 307.304 281.794 305.864 283.394 304.712C285.058 303.496 287.234 302.888 289.922 302.888C291.65 302.888 293.122 303.24 294.338 303.944C295.554 304.648 296.578 305.48 297.41 306.44C298.306 307.336 298.978 308.136 299.426 308.84C299.682 309.096 300.002 309.512 300.385 310.088C300.77 310.6 301.122 310.856 301.442 310.856C301.634 310.856 301.73 310.728 301.73 310.472C301.73 309.96 301.378 309.16 300.674 308.072C300.418 307.624 299.81 306.888 298.85 305.864C297.89 304.84 296.674 303.88 295.202 302.984C293.73 302.088 292.002 301.64 290.018 301.64C287.33 301.64 285.186 302.12 283.586 303.08C282.05 304.04 280.898 305.128 280.13 306.344C279.362 307.496 278.85 308.36 278.594 308.936L277.058 308.552V305.576C277.058 304.04 277.25 302.408 277.634 300.68C278.018 298.888 278.658 297.224 279.554 295.688C280.514 294.088 281.826 292.808 283.49 291.848C285.218 290.824 287.362 290.312 289.922 290.312C291.65 290.312 293.122 290.664 294.338 291.368C295.554 292.072 296.578 292.904 297.41 293.864C298.306 294.76 298.978 295.56 299.426 296.264C299.618 296.52 299.938 296.936 300.385 297.512C300.834 298.088 301.186 298.376 301.442 298.376C301.634 298.376 301.73 298.248 301.73 297.992C301.73 297.48 301.378 296.68 300.674 295.592C300.418 295.144 299.81 294.408 298.85 293.384C297.89 292.36 296.674 291.4 295.202 290.504C293.73 289.608 292.002 289.16 290.018 289.16C287.33 289.16 285.154 289.64 283.49 290.6C281.826 291.56 280.578 292.616 279.746 293.768C278.914 294.92 278.338 295.784 278.018 296.36L276.578 296.072V244.904C276.578 237.992 273.89 234.536 268.514 234.536C266.594 234.536 265.058 235.016 263.906 235.976C262.818 236.872 261.954 237.96 261.314 239.24C260.738 240.52 260.354 241.736 260.162 242.888C259.97 244.04 259.874 244.808 259.874 245.192C259.874 246.088 259.938 246.536 260.066 246.536C260.322 246.536 260.45 246.28 260.45 245.768C260.514 245.256 260.578 244.872 260.642 244.616C260.706 244.232 260.834 243.56 261.026 242.6C261.218 241.64 261.57 240.616 262.082 239.528C262.658 238.44 263.458 237.512 264.482 236.744C265.506 235.976 266.85 235.592 268.514 235.592C270.69 235.592 272.258 236.136 273.218 237.224C274.242 238.312 274.882 239.624 275.138 241.16C275.394 242.632 275.522 244.04 275.522 245.384V296.072L273.986 296.36C273.73 295.784 273.186 294.92 272.354 293.768C271.522 292.616 270.274 291.56 268.609 290.6C266.946 289.64 264.738 289.16 261.986 289.16C260.066 289.16 258.338 289.608 256.802 290.504C255.33 291.4 254.146 292.36 253.25 293.384C252.354 294.408 251.746 295.144 251.426 295.592C250.722 296.552 250.37 297.352 250.37 297.992C250.37 298.248 250.434 298.376 250.562 298.376C250.882 298.376 251.586 297.64 252.674 296.168C253.122 295.528 253.762 294.76 254.594 293.864C255.426 292.904 256.45 292.072 257.666 291.368C258.946 290.664 260.418 290.312 262.082 290.312C264.706 290.312 266.85 290.824 268.514 291.848C270.242 292.808 271.554 294.088 272.45 295.688C273.41 297.224 274.082 298.888 274.466 300.68C274.85 302.408 275.042 304.04 275.042 305.576V308.552L273.506 308.936C273.186 308.36 272.642 307.496 271.874 306.344C271.106 305.128 269.922 304.04 268.322 303.08C266.786 302.12 264.674 301.64 261.986 301.64C260.066 301.64 258.338 302.088 256.802 302.984C255.33 303.88 254.146 304.84 253.25 305.864C252.354 306.888 251.746 307.624 251.426 308.072C250.722 309.032 250.37 309.832 250.37 310.472C250.37 310.728 250.434 310.856 250.562 310.856C250.818 310.856 251.522 310.12 252.674 308.648C253.122 308.008 253.762 307.24 254.594 306.344C255.426 305.448 256.45 304.648 257.666 303.944C258.946 303.24 260.418 302.888 262.082 302.888C264.77 302.888 266.914 303.496 268.514 304.712C270.178 305.864 271.426 307.304 272.258 309.032C273.09 310.76 273.634 312.456 273.89 314.12C274.21 315.784 274.37 317.128 274.37 318.152V323.528C274.37 324.808 274.466 325.768 274.658 326.408C274.914 326.984 275.362 327.272 276.002 327.272Z" fill="black"/>
<path d="M838.044 315.944C833.372 315.944 829.884 314.28 827.58 310.952C825.34 307.56 824.22 303.176 824.22 297.8C824.22 295.176 824.572 292.648 825.276 290.216C825.98 287.784 826.812 285.544 827.772 283.496C828.732 281.384 829.66 279.592 830.556 278.12C831.452 276.648 832.124 275.592 832.572 274.952C832.828 274.632 833.34 273.96 834.108 272.936C834.876 271.912 835.772 270.696 836.796 269.288C835.26 267.24 833.564 265.032 831.708 262.664C829.916 260.232 828.22 257.96 826.62 255.848C825.02 253.672 823.772 252.008 822.876 250.856L824.316 249.704C825.468 251.176 826.844 252.968 828.444 255.08C830.044 257.192 831.676 259.368 833.34 261.608C835.068 263.784 836.636 265.8 838.044 267.656C839.452 265.8 840.988 263.784 842.652 261.608C844.316 259.368 845.948 257.192 847.548 255.08C849.148 252.968 850.524 251.176 851.676 249.704L853.116 250.856C852.22 252.008 850.94 253.672 849.276 255.848C847.676 257.96 845.98 260.232 844.188 262.664C842.396 265.032 840.732 267.24 839.196 269.288C840.028 270.312 840.892 271.464 841.788 272.744C842.684 273.96 843.228 274.696 843.42 274.952C843.868 275.592 844.54 276.648 845.436 278.12C846.332 279.592 847.26 281.384 848.22 283.496C849.244 285.544 850.076 287.784 850.716 290.216C851.42 292.648 851.772 295.176 851.772 297.8C851.772 303.176 850.716 307.56 848.604 310.952C846.492 314.28 842.972 315.944 838.044 315.944ZM838.044 314.12C842.012 314.12 844.988 312.68 846.972 309.8C848.956 306.856 849.948 302.856 849.948 297.8C849.948 295.304 849.564 292.808 848.796 290.312C848.092 287.816 847.196 285.544 846.108 283.496C845.084 281.384 844.092 279.592 843.132 278.12C842.236 276.648 841.628 275.688 841.308 275.24C840.796 274.6 839.708 273.16 838.044 270.92C837.212 271.944 836.508 272.84 835.932 273.608C835.42 274.376 835.004 274.92 834.684 275.24C834.364 275.688 833.724 276.648 832.764 278.12C831.868 279.592 830.908 281.384 829.884 283.496C828.86 285.544 827.964 287.816 827.196 290.312C826.492 292.808 826.14 295.304 826.14 297.8C826.14 302.856 827.132 306.856 829.116 309.8C831.164 312.68 834.14 314.12 838.044 314.12Z" fill="black"/>
<path d="M437.83 116V103.712C437.83 101.28 437.478 99.168 436.774 97.376C436.07 95.584 434.598 94.4 432.358 93.824L421.798 91.136L430.534 19.904L440.422 23.84C442.086 24.544 443.302 25.792 444.07 27.584C444.838 29.312 445.222 31.008 445.222 32.672V116H437.83ZM439.75 114.368H443.302V32.672C443.302 31.392 443.014 30.048 442.438 28.64C441.926 27.232 440.966 26.208 439.558 25.568L431.974 22.592L423.718 89.696L433.51 92.384C435.366 92.896 436.71 93.76 437.542 94.976C438.438 96.128 439.014 97.408 439.27 98.816C439.59 100.224 439.75 101.568 439.75 102.848V114.368Z" fill="black"/>
<path d="M591.987 117.248L590.163 117.056C590.291 116.16 590.547 115.2 590.931 114.176C591.315 113.152 591.859 112.448 592.563 112.064C593.843 111.36 595.411 110.88 597.267 110.624C599.123 110.368 600.947 110.112 602.739 109.856C604.595 109.536 606.035 108.928 607.059 108.032C607.123 107.968 607.219 107.744 607.347 107.36C607.539 106.912 607.891 106.016 608.403 104.672C608.915 103.264 609.651 101.12 610.611 98.24L606.387 78.656C605.363 77.12 604.147 75.264 602.739 73.088C601.331 70.848 599.923 68.576 598.515 66.272C597.171 63.968 596.019 61.888 595.059 60.032C594.099 58.176 593.523 56.8 593.331 55.904L592.371 49.664C592.179 48.128 591.955 46.56 591.699 44.96C591.443 43.296 591.187 41.824 590.931 40.544C590.675 39.2 590.451 38.272 590.259 37.76C589.747 36.608 588.723 35.52 587.187 34.496C585.651 33.408 583.891 32.64 581.907 32.192C582.035 31.616 582.323 30.944 582.771 30.176C583.283 29.408 583.955 28.8 584.787 28.352C585.363 28.032 586.035 27.712 586.803 27.392C587.635 27.008 588.307 26.688 588.819 26.432C588.947 26.048 589.331 25.344 589.971 24.32C590.675 23.296 591.763 22.336 593.235 21.44C594.707 20.48 596.691 19.968 599.187 19.904C601.491 19.84 603.635 20.512 605.619 21.92C607.603 23.264 609.395 24.896 610.995 26.816C612.595 28.672 613.971 30.4 615.123 32C615.571 32.576 615.955 33.088 616.275 33.536C616.659 33.984 616.979 34.368 617.235 34.688C617.683 35.264 618.291 35.872 619.059 36.512C620.275 37.728 621.587 39.136 622.995 40.736C624.403 42.272 625.651 43.872 626.739 45.536C627.827 47.2 628.435 48.832 628.563 50.432C629.651 51.072 630.931 52.128 632.403 53.6C633.939 55.008 635.443 56.512 636.915 58.112C638.387 59.712 639.539 61.184 640.371 62.528C640.883 63.296 641.587 64.512 642.483 66.176C643.443 67.84 644.435 69.568 645.459 71.36C646.547 73.344 647.603 75.264 648.627 77.12C649.651 78.976 650.355 80.16 650.739 80.672C651.315 81.44 651.859 82.048 652.371 82.496C653.075 83.2 653.683 83.904 654.195 84.608C654.771 85.312 655.059 86.08 655.059 86.912C655.059 87.808 654.675 88.576 653.907 89.216C653.203 89.792 652.307 90.08 651.219 90.08C650.387 90.08 649.363 90.016 648.147 89.888C646.931 89.76 645.907 89.632 645.075 89.504C644.563 89.76 643.379 90.208 641.523 90.848C639.731 91.424 637.715 91.712 635.475 91.712C634.323 91.712 632.851 91.552 631.059 91.232C629.267 90.912 627.731 90.624 626.451 90.368C626.771 91.328 627.187 92.608 627.699 94.208C628.275 95.744 628.755 97.056 629.139 98.144L624.915 110.912C625.491 110.976 626.291 111.072 627.315 111.2C628.339 111.264 629.331 111.392 630.291 111.584C631.251 111.712 631.891 111.872 632.211 112.064C632.915 112.448 633.459 113.152 633.843 114.176C634.227 115.2 634.483 116.16 634.611 117.056L632.787 117.248C632.531 116.736 632.403 116.32 632.403 116H604.371C604.307 116.128 604.243 116.32 604.179 116.576C604.115 116.832 604.051 117.056 603.987 117.248L602.163 117.056C602.163 116.864 602.227 116.512 602.355 116H592.371C592.307 116.128 592.243 116.32 592.179 116.576C592.115 116.832 592.051 117.056 591.987 117.248ZM605.043 114.08H631.635L631.251 113.792C630.675 113.472 629.491 113.216 627.699 113.024C625.971 112.768 624.371 112.608 622.899 112.544V110.624L627.123 98.144C627.059 97.824 626.803 97.088 626.355 95.936C625.971 94.784 625.523 93.44 625.011 91.904C624.499 90.368 624.019 88.928 623.571 87.584C625.171 88.032 627.155 88.512 629.523 89.024C631.891 89.536 633.875 89.792 635.475 89.792C637.139 89.792 638.867 89.536 640.659 89.024C642.451 88.448 643.859 87.936 644.883 87.488C645.715 87.616 646.739 87.776 647.955 87.968C649.235 88.096 650.323 88.16 651.219 88.16C652.563 88.16 653.235 87.744 653.235 86.912C653.235 86.4 653.011 85.92 652.563 85.472C652.115 84.96 651.635 84.416 651.123 83.84C650.803 83.52 650.483 83.2 650.163 82.88C649.843 82.496 649.523 82.144 649.203 81.824C648.755 81.12 648.019 79.872 646.995 78.08C645.971 76.288 644.883 74.368 643.731 72.32C642.771 70.464 641.843 68.736 640.947 67.136C640.051 65.536 639.347 64.352 638.835 63.584C638.131 62.496 637.171 61.312 635.955 60.032C634.803 58.688 633.587 57.376 632.307 56.096C631.027 54.816 629.811 53.76 628.659 52.928V53.12C628.659 55.488 627.923 57.632 626.451 59.552C625.043 61.408 622.707 62.336 619.443 62.336C619.123 62.336 618.611 62.304 617.907 62.24C617.267 62.112 616.691 62.016 616.179 61.952C616.883 62.976 617.587 64.096 618.291 65.312C619.059 66.528 619.443 67.456 619.443 68.096C619.443 69.12 619.187 70.112 618.675 71.072C618.227 72.032 617.139 72.512 615.411 72.512C614.323 72.512 612.947 71.968 611.283 70.88C609.619 69.792 607.955 68.352 606.291 66.56C604.627 64.768 603.219 62.784 602.067 60.608C600.979 58.368 600.435 56.096 600.435 53.792C600.435 50.976 601.491 49.088 603.603 48.128C605.715 47.168 609.299 46.688 614.355 46.688C614.803 46.688 615.219 46.72 615.603 46.784C616.051 46.784 616.499 46.784 616.947 46.784V48.608H614.355C610.003 48.608 606.899 48.96 605.043 49.664C603.187 50.368 602.259 51.744 602.259 53.792C602.259 55.84 602.739 57.856 603.699 59.84C604.723 61.824 605.971 63.648 607.443 65.312C608.915 66.912 610.355 68.224 611.763 69.248C613.235 70.208 614.451 70.688 615.411 70.688C616.307 70.688 616.883 70.432 617.139 69.92C617.395 69.344 617.523 68.736 617.523 68.096C617.523 67.776 617.203 67.104 616.563 66.08C615.923 65.056 615.155 63.904 614.259 62.624C613.363 61.28 612.467 60.032 611.571 58.88C612.851 59.2 614.291 59.552 615.891 59.936C617.491 60.256 618.675 60.416 619.443 60.416C622.067 60.416 623.955 59.68 625.107 58.208C626.259 56.736 626.835 55.04 626.835 53.12C626.835 52.928 626.803 52.672 626.739 52.352C626.739 52.032 626.739 51.744 626.739 51.488C626.675 49.888 626.131 48.256 625.107 46.592C624.083 44.928 622.867 43.36 621.459 41.888C620.115 40.352 618.867 39.008 617.715 37.856C617.395 37.536 617.043 37.216 616.659 36.896C616.339 36.512 616.051 36.192 615.795 35.936V36.032C615.539 35.712 615.219 35.328 614.835 34.88C614.515 34.368 614.099 33.792 613.587 33.152C612.563 31.68 611.283 30.08 609.747 28.352C608.211 26.56 606.547 25.024 604.755 23.744C602.963 22.464 601.107 21.824 599.187 21.824C596.691 21.952 594.771 22.624 593.427 23.84C592.147 25.056 591.251 26.08 590.739 26.912C590.995 27.36 591.347 28.192 591.795 29.408C592.243 30.56 592.499 31.648 592.563 32.672C591.603 32.416 590.579 32.224 589.491 32.096C588.467 31.904 587.507 31.776 586.611 31.712C589.363 33.056 591.187 34.848 592.083 37.088C592.403 37.92 592.755 39.584 593.139 42.08C593.523 44.512 593.907 46.944 594.291 49.376L595.251 55.52C595.507 56.416 596.083 57.76 596.979 59.552C597.875 61.28 598.931 63.2 600.147 65.312C601.427 67.424 602.707 69.504 603.987 71.552C605.331 73.6 606.515 75.424 607.539 77.024C608.563 78.624 609.299 79.776 609.747 80.48C610.195 81.12 610.963 82.112 612.051 83.456C613.139 84.736 614.419 86.208 615.891 87.872C617.363 89.536 618.867 91.264 620.403 93.056C622.003 94.784 623.507 96.416 624.915 97.952L619.635 112.544C618.291 112.48 616.595 112.512 614.547 112.64C612.563 112.704 610.675 112.832 608.883 113.024C607.155 113.216 606.003 113.472 605.427 113.792C605.299 113.856 605.171 113.952 605.043 114.08ZM597.075 30.56C596.051 30.56 595.187 30.304 594.483 29.792C593.779 29.216 593.427 28.768 593.427 28.448C593.427 28.192 593.779 27.776 594.483 27.2C595.187 26.56 596.051 26.24 597.075 26.24C598.227 26.24 599.123 26.528 599.763 27.104C600.467 27.616 600.819 28.064 600.819 28.448C600.819 28.832 600.467 29.28 599.763 29.792C599.123 30.304 598.227 30.56 597.075 30.56ZM597.075 29.12C597.779 29.12 598.291 29.024 598.611 28.832C598.995 28.64 599.187 28.512 599.187 28.448C599.187 28 598.483 27.776 597.075 27.776C596.435 27.776 595.955 27.872 595.635 28.064C595.315 28.192 595.155 28.32 595.155 28.448C595.155 28.512 595.315 28.64 595.635 28.832C595.955 29.024 596.435 29.12 597.075 29.12ZM590.835 30.752C590.707 30.368 590.515 29.92 590.259 29.408C590.067 28.896 589.875 28.448 589.683 28.064C589.043 28.256 588.147 28.608 586.995 29.12C585.843 29.568 585.107 29.984 584.787 30.368C585.683 30.368 586.675 30.4 587.763 30.464C588.915 30.528 589.939 30.624 590.835 30.752ZM593.043 114.08H602.931C603.123 113.632 603.347 113.248 603.603 112.928C603.859 112.544 604.179 112.256 604.563 112.064C604.883 111.872 605.555 111.68 606.579 111.488C607.603 111.232 608.627 111.072 609.651 111.008L615.411 97.28L613.971 88.64C613.075 87.552 612.211 86.528 611.379 85.568C610.547 84.608 609.843 83.744 609.267 82.976L612.531 98.24C611.507 101.312 610.739 103.648 610.227 105.248C609.715 106.784 609.299 107.872 608.979 108.512C608.659 109.088 608.275 109.536 607.827 109.856C606.675 110.624 605.203 111.168 603.411 111.488C601.619 111.744 599.827 112.032 598.035 112.352C596.243 112.608 594.707 113.088 593.427 113.792C593.299 113.856 593.171 113.952 593.043 114.08ZM611.859 110.72C612.755 110.656 613.875 110.624 615.219 110.624C616.627 110.624 617.747 110.624 618.579 110.624L622.899 98.528C622.451 98.144 621.619 97.28 620.403 95.936C619.187 94.528 617.843 93.024 616.371 91.424L617.331 97.472L611.859 110.72Z" fill="black"/>
<path d="M326.987 330.248L325.163 330.056C325.291 329.16 325.547 328.2 325.931 327.176C326.315 326.152 326.859 325.448 327.563 325.064C328.843 324.36 330.411 323.88 332.267 323.624C334.123 323.368 335.947 323.112 337.739 322.856C339.595 322.536 341.035 321.928 342.059 321.032C342.123 320.968 342.219 320.744 342.347 320.36C342.539 319.912 342.891 319.016 343.403 317.672C343.915 316.264 344.651 314.12 345.611 311.24L341.387 291.656C340.363 290.12 339.147 288.264 337.739 286.088C336.331 283.848 334.923 281.576 333.515 279.272C332.171 276.968 331.019 274.888 330.059 273.032C329.099 271.176 328.523 269.8 328.331 268.904L327.371 262.664C327.179 261.128 326.955 259.56 326.699 257.96C326.443 256.296 326.187 254.824 325.931 253.544C325.675 252.2 325.451 251.272 325.259 250.76C324.747 249.608 323.723 248.52 322.187 247.496C320.651 246.408 318.891 245.64 316.907 245.192C317.035 244.616 317.323 243.944 317.771 243.176C318.283 242.408 318.955 241.8 319.787 241.352C320.363 241.032 321.035 240.712 321.803 240.392C322.635 240.008 323.307 239.688 323.819 239.432C323.947 239.048 324.331 238.344 324.971 237.32C325.675 236.296 326.763 235.336 328.235 234.44C329.707 233.48 331.691 232.968 334.187 232.904C336.491 232.84 338.635 233.512 340.619 234.92C342.603 236.264 344.395 237.896 345.995 239.816C347.595 241.672 348.971 243.4 350.123 245C350.571 245.576 350.955 246.088 351.275 246.536C351.659 246.984 351.979 247.368 352.235 247.688C352.683 248.264 353.291 248.872 354.059 249.512C355.275 250.728 356.587 252.136 357.995 253.736C359.403 255.272 360.651 256.872 361.739 258.536C362.827 260.2 363.435 261.832 363.563 263.432C364.651 264.072 365.931 265.128 367.403 266.6C368.939 268.008 370.443 269.512 371.915 271.112C373.387 272.712 374.539 274.184 375.371 275.528C375.883 276.296 376.587 277.512 377.483 279.176C378.443 280.84 379.435 282.568 380.459 284.36C381.547 286.344 382.603 288.264 383.627 290.12C384.651 291.976 385.355 293.16 385.739 293.672C386.315 294.44 386.859 295.048 387.371 295.496C388.075 296.2 388.683 296.904 389.195 297.608C389.771 298.312 390.059 299.08 390.059 299.912C390.059 300.808 389.675 301.576 388.907 302.216C388.203 302.792 387.307 303.08 386.219 303.08C385.387 303.08 384.363 303.016 383.147 302.888C381.931 302.76 380.907 302.632 380.075 302.504C379.563 302.76 378.379 303.208 376.523 303.848C374.731 304.424 372.715 304.712 370.475 304.712C369.323 304.712 367.851 304.552 366.059 304.232C364.267 303.912 362.731 303.624 361.451 303.368C361.771 304.328 362.187 305.608 362.699 307.208C363.275 308.744 363.755 310.056 364.139 311.144L359.915 323.912C360.491 323.976 361.291 324.072 362.315 324.2C363.339 324.264 364.331 324.392 365.291 324.584C366.251 324.712 366.891 324.872 367.211 325.064C367.915 325.448 368.459 326.152 368.843 327.176C369.227 328.2 369.483 329.16 369.611 330.056L367.787 330.248C367.531 329.736 367.403 329.32 367.403 329H339.371C339.307 329.128 339.243 329.32 339.179 329.576C339.115 329.832 339.051 330.056 338.987 330.248L337.163 330.056C337.163 329.864 337.227 329.512 337.355 329H327.371C327.307 329.128 327.243 329.32 327.179 329.576C327.115 329.832 327.051 330.056 326.987 330.248ZM340.043 327.08H366.635L366.251 326.792C365.675 326.472 364.491 326.216 362.699 326.024C360.971 325.768 359.371 325.608 357.899 325.544V323.624L362.123 311.144C362.059 310.824 361.803 310.088 361.355 308.936C360.971 307.784 360.523 306.44 360.011 304.904C359.499 303.368 359.019 301.928 358.571 300.584C360.171 301.032 362.155 301.512 364.523 302.024C366.891 302.536 368.875 302.792 370.475 302.792C372.139 302.792 373.867 302.536 375.659 302.024C377.451 301.448 378.859 300.936 379.883 300.488C380.715 300.616 381.739 300.776 382.955 300.968C384.235 301.096 385.323 301.16 386.219 301.16C387.563 301.16 388.235 300.744 388.235 299.912C388.235 299.4 388.011 298.92 387.563 298.472C387.115 297.96 386.635 297.416 386.123 296.84C385.803 296.52 385.483 296.2 385.163 295.88C384.843 295.496 384.523 295.144 384.203 294.824C383.755 294.12 383.019 292.872 381.995 291.08C380.971 289.288 379.883 287.368 378.731 285.32C377.771 283.464 376.843 281.736 375.947 280.136C375.051 278.536 374.347 277.352 373.835 276.584C373.131 275.496 372.171 274.312 370.955 273.032C369.803 271.688 368.587 270.376 367.307 269.096C366.027 267.816 364.811 266.76 363.659 265.928V266.12C363.659 268.488 362.923 270.632 361.451 272.552C360.043 274.408 357.707 275.336 354.443 275.336C354.123 275.336 353.611 275.304 352.907 275.24C352.267 275.112 351.691 275.016 351.179 274.952C351.883 275.976 352.587 277.096 353.291 278.312C354.059 279.528 354.443 280.456 354.443 281.096C354.443 282.12 354.187 283.112 353.675 284.072C353.227 285.032 352.139 285.512 350.411 285.512C349.323 285.512 347.947 284.968 346.283 283.88C344.619 282.792 342.955 281.352 341.291 279.56C339.627 277.768 338.219 275.784 337.067 273.608C335.979 271.368 335.435 269.096 335.435 266.792C335.435 263.976 336.491 262.088 338.603 261.128C340.715 260.168 344.299 259.688 349.355 259.688C349.803 259.688 350.219 259.72 350.603 259.784C351.051 259.784 351.499 259.784 351.947 259.784V261.608H349.355C345.003 261.608 341.899 261.96 340.043 262.664C338.187 263.368 337.259 264.744 337.259 266.792C337.259 268.84 337.739 270.856 338.699 272.84C339.723 274.824 340.971 276.648 342.443 278.312C343.915 279.912 345.355 281.224 346.763 282.248C348.235 283.208 349.451 283.688 350.411 283.688C351.307 283.688 351.883 283.432 352.139 282.92C352.395 282.344 352.523 281.736 352.523 281.096C352.523 280.776 352.203 280.104 351.563 279.08C350.923 278.056 350.155 276.904 349.259 275.624C348.363 274.28 347.467 273.032 346.571 271.88C347.851 272.2 349.291 272.552 350.891 272.936C352.491 273.256 353.675 273.416 354.443 273.416C357.067 273.416 358.955 272.68 360.107 271.208C361.259 269.736 361.835 268.04 361.835 266.12C361.835 265.928 361.803 265.672 361.739 265.352C361.739 265.032 361.739 264.744 361.739 264.488C361.675 262.888 361.131 261.256 360.107 259.592C359.083 257.928 357.867 256.36 356.459 254.888C355.115 253.352 353.867 252.008 352.715 250.856C352.395 250.536 352.043 250.216 351.659 249.896C351.339 249.512 351.051 249.192 350.795 248.936V249.032C350.539 248.712 350.219 248.328 349.835 247.88C349.515 247.368 349.099 246.792 348.587 246.152C347.563 244.68 346.283 243.08 344.747 241.352C343.211 239.56 341.547 238.024 339.755 236.744C337.963 235.464 336.107 234.824 334.187 234.824C331.691 234.952 329.771 235.624 328.427 236.84C327.147 238.056 326.251 239.08 325.739 239.912C325.995 240.36 326.347 241.192 326.795 242.408C327.243 243.56 327.499 244.648 327.563 245.672C326.603 245.416 325.579 245.224 324.491 245.096C323.467 244.904 322.507 244.776 321.611 244.712C324.363 246.056 326.187 247.848 327.083 250.088C327.403 250.92 327.755 252.584 328.139 255.08C328.523 257.512 328.907 259.944 329.291 262.376L330.251 268.52C330.507 269.416 331.083 270.76 331.979 272.552C332.875 274.28 333.931 276.2 335.147 278.312C336.427 280.424 337.707 282.504 338.987 284.552C340.331 286.6 341.515 288.424 342.539 290.024C343.563 291.624 344.299 292.776 344.747 293.48C345.195 294.12 345.963 295.112 347.051 296.456C348.139 297.736 349.419 299.208 350.891 300.872C352.363 302.536 353.867 304.264 355.403 306.056C357.003 307.784 358.507 309.416 359.915 310.952L354.635 325.544C353.291 325.48 351.595 325.512 349.547 325.64C347.563 325.704 345.675 325.832 343.883 326.024C342.155 326.216 341.003 326.472 340.427 326.792C340.299 326.856 340.171 326.952 340.043 327.08ZM332.075 243.56C331.051 243.56 330.187 243.304 329.483 242.792C328.779 242.216 328.427 241.768 328.427 241.448C328.427 241.192 328.779 240.776 329.483 240.2C330.187 239.56 331.051 239.24 332.075 239.24C333.227 239.24 334.123 239.528 334.763 240.104C335.467 240.616 335.819 241.064 335.819 241.448C335.819 241.832 335.467 242.28 334.763 242.792C334.123 243.304 333.227 243.56 332.075 243.56ZM332.075 242.12C332.779 242.12 333.291 242.024 333.611 241.832C333.995 241.64 334.187 241.512 334.187 241.448C334.187 241 333.483 240.776 332.075 240.776C331.435 240.776 330.955 240.872 330.635 241.064C330.315 241.192 330.155 241.32 330.155 241.448C330.155 241.512 330.315 241.64 330.635 241.832C330.955 242.024 331.435 242.12 332.075 242.12ZM325.835 243.752C325.707 243.368 325.515 242.92 325.259 242.408C325.067 241.896 324.875 241.448 324.683 241.064C324.043 241.256 323.147 241.608 321.995 242.12C320.843 242.568 320.107 242.984 319.787 243.368C320.683 243.368 321.675 243.4 322.763 243.464C323.915 243.528 324.939 243.624 325.835 243.752ZM328.043 327.08H337.931C338.123 326.632 338.347 326.248 338.603 325.928C338.859 325.544 339.179 325.256 339.563 325.064C339.883 324.872 340.555 324.68 341.579 324.488C342.603 324.232 343.627 324.072 344.651 324.008L350.411 310.28L348.971 301.64C348.075 300.552 347.211 299.528 346.379 298.568C345.547 297.608 344.843 296.744 344.267 295.976L347.531 311.24C346.507 314.312 345.739 316.648 345.227 318.248C344.715 319.784 344.299 320.872 343.979 321.512C343.659 322.088 343.275 322.536 342.827 322.856C341.675 323.624 340.203 324.168 338.411 324.488C336.619 324.744 334.827 325.032 333.035 325.352C331.243 325.608 329.707 326.088 328.427 326.792C328.299 326.856 328.171 326.952 328.043 327.08ZM346.859 323.72C347.755 323.656 348.875 323.624 350.219 323.624C351.627 323.624 352.747 323.624 353.579 323.624L357.899 311.528C357.451 311.144 356.619 310.28 355.403 308.936C354.187 307.528 352.843 306.024 351.371 304.424L352.331 310.472L346.859 323.72Z" fill="black"/>
<path d="M675.71 116V50.144H674.27L671.294 47.84L669.662 44.576L669.47 43.328L671.294 39.104L672.638 38.432L673.406 38.816L674.366 37.376L675.71 38.048V19.904H679.166V39.776L680.126 40.16L682.43 43.136L683.678 47.36L695.198 56.864C698.398 53.088 700.958 50.24 702.878 48.32C704.798 46.336 706.014 45.12 706.526 44.672L702.686 42.848L699.326 45.248L694.718 41.984C694.462 42.24 694.142 42.528 693.758 42.848C693.374 43.104 693.022 43.36 692.702 43.616L688.766 33.056L687.998 32C687.358 30.784 687.038 29.632 687.038 28.544C687.038 27.008 687.582 25.6 688.67 24.32C689.822 22.976 691.23 21.92 692.894 21.152C694.558 20.32 696.19 19.904 697.79 19.904C700.03 19.904 702.046 20.704 703.838 22.304C705.694 23.904 706.91 26.272 707.486 29.408L708.446 34.688L710.558 35.456L711.23 35.264L713.822 33.728C714.718 33.152 715.966 32.832 717.566 32.768C719.166 32.64 720.67 32.672 722.078 32.864L740.318 35.36L752.798 50.528L755.582 51.488L757.694 53.792L759.518 60.224L757.214 61.184L755.39 56.672L753.566 55.712L754.622 59.84L752.318 60.704L748.766 54.656L736.766 41.888L725.726 41.12C727.774 42.784 729.886 44.576 732.062 46.496C734.238 48.416 736.158 50.144 737.822 51.68C739.55 53.216 740.638 54.272 741.086 54.848C743.902 56.064 745.95 57.536 747.23 59.264C748.51 60.992 749.15 63.168 749.15 65.792C749.15 67.136 748.638 68.896 747.614 71.072C746.59 73.184 745.342 75.392 743.87 77.696C742.398 79.936 740.958 81.952 739.55 83.744L744.062 91.04C745.662 93.664 746.942 96.128 747.902 98.432C748.862 100.672 749.534 103.168 749.918 105.92C750.366 108.608 750.59 111.968 750.59 116H732.446V111.008L738.782 109.76C739.742 109.568 740.542 109.248 741.182 108.8C741.886 108.288 742.238 107.68 742.238 106.976C742.238 106.464 742.046 105.92 741.662 105.344C741.278 104.768 740.926 104.256 740.606 103.808L732.158 91.808H725.726L717.086 116H701.438V111.008L709.214 109.76C710.43 109.504 711.23 108.928 711.614 108.032C712.062 107.136 712.382 106.176 712.574 105.152L716.798 84.128L728.222 68.096V62.24L710.558 53.696L697.982 66.848L695.102 66.944L679.166 53.024V116H675.71ZM706.718 34.304L705.662 29.408C705.47 28.512 705.086 27.488 704.51 26.336C703.934 25.184 703.134 24.192 702.11 23.36C701.15 22.464 699.902 22.016 698.366 22.016C696.702 22.016 695.166 22.368 693.758 23.072C692.35 23.776 691.198 24.672 690.302 25.76C689.47 26.848 689.054 27.968 689.054 29.12C689.054 29.824 689.182 30.464 689.438 31.04L697.214 30.08C697.278 29.504 697.438 28.992 697.694 28.544C698.014 28.032 698.526 27.776 699.23 27.776C700.254 27.776 701.054 28.192 701.63 29.024C702.27 29.856 702.654 30.944 702.782 32.288L702.974 33.92L706.718 34.304ZM695.486 65.12H697.214L709.982 51.68L729.662 60.8L738.878 54.752L720.926 39.104L737.63 40.256L749.918 53.888L752.702 59.36L753.566 58.88L752.414 54.464L752.894 53.984L755.774 55.328L757.694 59.744L758.27 59.552L756.734 54.56L754.622 52.736L751.742 51.776L739.07 36.704L721.694 34.592C720.478 34.464 719.262 34.432 718.046 34.496C716.83 34.56 715.87 34.752 715.166 35.072C714.206 35.52 713.406 36 712.766 36.512C712.19 36.96 711.774 37.312 711.518 37.568L707.39 36.032L701.822 35.648L701.246 32.096C701.182 31.584 701.022 31.04 700.766 30.464C700.51 29.888 700.126 29.6 699.614 29.6C699.358 29.6 699.134 29.76 698.942 30.08C698.814 30.336 698.75 30.624 698.75 30.944V31.712L690.398 32.864L693.374 40.928C693.566 40.8 693.758 40.672 693.95 40.544C694.206 40.416 694.398 40.288 694.526 40.16L699.134 43.328L702.686 40.832L709.118 44.48C707.902 45.568 706.046 47.424 703.55 50.048C701.054 52.608 698.366 55.616 695.486 59.072L682.814 48.8L680.99 43.808L679.358 41.408L674.654 38.72L674.174 39.584L675.134 40.064L678.494 42.368L679.55 45.536L679.166 46.112V50.72L695.486 65.12ZM693.086 36.416C692.766 36.416 692.606 36.352 692.606 36.224C692.606 35.136 693.022 34.368 693.854 33.92C694.686 33.472 695.262 33.248 695.582 33.248C695.966 33.248 696.542 33.408 697.31 33.728C696.606 34.752 695.902 35.456 695.198 35.84C694.558 36.224 693.854 36.416 693.086 36.416ZM674.558 48.512L676.19 48.416L678.014 45.056L677.246 42.848L672.638 39.872L670.91 43.232L671.102 44.096L672.638 47.36L674.558 48.512ZM717.854 89.984H740.99L737.15 83.264C738.622 81.408 740.126 79.36 741.662 77.12C743.262 74.88 744.606 72.736 745.694 70.688C746.782 68.64 747.326 67.04 747.326 65.888C747.326 63.84 746.718 61.952 745.502 60.224C744.35 58.432 742.558 57.056 740.126 56.096L730.142 62.72V68.96L718.91 84.608L717.854 89.984ZM703.166 113.984H716.03L723.902 91.808H717.47L714.398 105.824C713.95 107.616 713.342 108.928 712.574 109.76C711.806 110.592 710.878 111.136 709.79 111.392L703.166 112.352V113.984ZM734.27 113.984H748.766C748.894 108.928 748.35 104.736 747.134 101.408C745.918 98.08 744.83 95.616 743.87 94.016L742.526 91.808H734.654L742.622 103.52C742.75 103.776 743.038 104.288 743.486 105.056C743.998 105.824 744.254 106.56 744.254 107.264C744.254 108.48 743.71 109.408 742.622 110.048C741.534 110.624 740.318 111.072 738.974 111.392L734.27 112.352V113.984Z" fill="black"/>
<path d="M893.133 329.88L897.549 288.216C894.349 288.28 890.925 288.6 887.277 289.176C883.693 289.752 880.429 290.296 877.485 290.808V280.152C878.957 280.408 880.749 280.728 882.861 281.112C884.973 281.496 887.149 281.848 889.389 282.168C891.693 282.424 893.837 282.616 895.821 282.744C895.181 281.656 894.253 280.088 893.037 278.04C891.821 275.992 890.509 273.656 889.101 271.032C887.693 268.408 886.349 265.688 885.069 262.872C883.789 259.992 882.733 257.208 881.901 254.52C881.133 251.768 880.749 249.272 880.749 247.032C880.749 243 881.645 239.768 883.437 237.336C885.229 234.904 887.565 233.176 890.445 232.152C893.325 231.064 896.365 230.52 899.565 230.52C902.765 230.52 905.773 231.064 908.589 232.152C911.469 233.176 913.805 234.904 915.597 237.336C917.453 239.768 918.381 243 918.381 247.032C918.381 249.272 917.965 251.768 917.133 254.52C916.301 257.208 915.245 259.992 913.965 262.872C912.749 265.688 911.437 268.408 910.029 271.032C908.621 273.656 907.309 275.992 906.093 278.04C904.877 280.088 903.917 281.656 903.213 282.744C905.261 282.616 907.405 282.424 909.645 282.168C911.949 281.848 914.157 281.496 916.269 281.112C918.381 280.728 920.141 280.408 921.549 280.152V290.904C918.541 290.328 915.245 289.752 911.661 289.176C908.077 288.6 904.685 288.28 901.485 288.216L905.901 329.88H893.133ZM898.125 282.84H900.813C899.917 281.176 898.829 279.192 897.549 276.888C896.269 274.52 894.925 271.992 893.517 269.304C892.173 266.616 890.893 263.928 889.677 261.24C888.461 258.488 887.469 255.896 886.701 253.464C885.933 250.968 885.549 248.824 885.549 247.032C885.549 244.024 886.285 241.688 887.757 240.024C889.293 238.296 891.149 237.08 893.325 236.376C895.501 235.672 897.581 235.32 899.565 235.32C901.549 235.32 903.597 235.672 905.709 236.376C907.885 237.08 909.741 238.296 911.277 240.024C912.813 241.688 913.581 244.024 913.581 247.032C913.581 248.952 913.133 251.256 912.237 253.944C911.405 256.568 910.317 259.352 908.973 262.296C907.629 265.176 906.221 268.024 904.749 270.84C903.277 273.656 901.901 276.216 900.621 278.52L902.061 281.016C902.765 279.8 903.693 278.2 904.845 276.216C906.061 274.168 907.341 271.896 908.685 269.4C910.029 266.84 911.277 264.216 912.429 261.528C913.645 258.84 914.605 256.248 915.309 253.752C916.077 251.256 916.461 249.016 916.461 247.032C916.461 243.448 915.661 240.6 914.061 238.488C912.461 236.376 910.349 234.84 907.725 233.88C905.165 232.92 902.445 232.44 899.565 232.44C896.685 232.44 893.965 232.92 891.405 233.88C888.845 234.84 886.733 236.376 885.069 238.488C883.469 240.6 882.669 243.448 882.669 247.032C882.669 249.336 883.181 252.024 884.205 255.096C885.229 258.104 886.477 261.208 887.949 264.408C889.485 267.544 890.989 270.488 892.461 273.24C893.997 275.992 895.309 278.264 896.397 280.056C897.485 281.784 898.061 282.712 898.125 282.84ZM899.565 276.6C900.845 274.232 902.189 271.672 903.597 268.92C905.005 266.168 906.317 263.416 907.533 260.664C908.749 257.912 909.741 255.352 910.509 252.984C911.277 250.616 911.661 248.632 911.661 247.032C911.661 244.472 910.989 242.488 909.645 241.08C908.365 239.672 906.797 238.68 904.941 238.104C903.085 237.464 901.293 237.144 899.565 237.144C897.837 237.144 896.013 237.464 894.093 238.104C892.237 238.68 890.637 239.672 889.293 241.08C888.013 242.488 887.373 244.472 887.373 247.032C887.373 248.632 887.757 250.616 888.525 252.984C889.293 255.352 890.285 257.912 891.501 260.664C892.717 263.416 894.029 266.168 895.437 268.92C896.909 271.672 898.285 274.232 899.565 276.6ZM879.309 288.6C880.717 288.344 882.509 288.056 884.685 287.736C886.925 287.352 889.325 287.032 891.885 286.776C894.509 286.456 897.037 286.296 899.469 286.296C901.901 286.296 904.397 286.456 906.957 286.776C909.581 287.032 912.013 287.352 914.253 287.736C916.493 288.056 918.285 288.344 919.629 288.6V282.456C918.605 282.648 916.973 282.936 914.733 283.32C912.493 283.64 909.997 283.96 907.245 284.28C904.557 284.6 901.965 284.76 899.469 284.76C897.741 284.76 895.629 284.632 893.133 284.376C890.701 284.12 888.237 283.832 885.741 283.512C883.309 283.128 881.165 282.776 879.309 282.456V288.6ZM895.341 328.056H903.789C902.957 321.592 902.253 315 901.677 308.28C901.101 301.56 900.397 294.872 899.565 288.216L895.341 328.056Z" fill="black"/>
<path d="M376.133 115.88L380.549 74.216C377.349 74.28 373.925 74.6 370.277 75.176C366.693 75.752 363.429 76.296 360.485 76.808V66.152C361.957 66.408 363.749 66.728 365.861 67.112C367.973 67.496 370.149 67.848 372.389 68.168C374.693 68.424 376.837 68.616 378.821 68.744C378.181 67.656 377.253 66.088 376.037 64.04C374.821 61.992 373.509 59.656 372.101 57.032C370.693 54.408 369.349 51.688 368.069 48.872C366.789 45.992 365.733 43.208 364.901 40.52C364.133 37.768 363.749 35.272 363.749 33.032C363.749 29 364.645 25.768 366.437 23.336C368.229 20.904 370.565 19.176 373.445 18.152C376.325 17.064 379.365 16.52 382.565 16.52C385.765 16.52 388.773 17.064 391.589 18.152C394.469 19.176 396.805 20.904 398.597 23.336C400.453 25.768 401.381 29 401.381 33.032C401.381 35.272 400.965 37.768 400.133 40.52C399.301 43.208 398.245 45.992 396.965 48.872C395.749 51.688 394.437 54.408 393.029 57.032C391.621 59.656 390.309 61.992 389.093 64.04C387.877 66.088 386.917 67.656 386.213 68.744C388.261 68.616 390.405 68.424 392.645 68.168C394.949 67.848 397.157 67.496 399.269 67.112C401.381 66.728 403.141 66.408 404.549 66.152V76.904C401.541 76.328 398.245 75.752 394.661 75.176C391.077 74.6 387.685 74.28 384.485 74.216L388.901 115.88H376.133ZM381.125 68.84H383.813C382.917 67.176 381.829 65.192 380.549 62.888C379.269 60.52 377.925 57.992 376.517 55.304C375.173 52.616 373.893 49.928 372.677 47.24C371.461 44.488 370.469 41.896 369.701 39.464C368.933 36.968 368.549 34.824 368.549 33.032C368.549 30.024 369.285 27.688 370.757 26.024C372.293 24.296 374.149 23.08 376.325 22.376C378.501 21.672 380.581 21.32 382.565 21.32C384.549 21.32 386.597 21.672 388.709 22.376C390.885 23.08 392.741 24.296 394.277 26.024C395.813 27.688 396.581 30.024 396.581 33.032C396.581 34.952 396.133 37.256 395.237 39.944C394.405 42.568 393.317 45.352 391.973 48.296C390.629 51.176 389.221 54.024 387.749 56.84C386.277 59.656 384.901 62.216 383.621 64.52L385.061 67.016C385.765 65.8 386.693 64.2 387.845 62.216C389.061 60.168 390.341 57.896 391.685 55.4C393.029 52.84 394.277 50.216 395.429 47.528C396.645 44.84 397.605 42.248 398.309 39.752C399.077 37.256 399.461 35.016 399.461 33.032C399.461 29.448 398.661 26.6 397.061 24.488C395.461 22.376 393.349 20.84 390.725 19.88C388.165 18.92 385.445 18.44 382.565 18.44C379.685 18.44 376.965 18.92 374.405 19.88C371.845 20.84 369.733 22.376 368.069 24.488C366.469 26.6 365.669 29.448 365.669 33.032C365.669 35.336 366.181 38.024 367.205 41.096C368.229 44.104 369.477 47.208 370.949 50.408C372.485 53.544 373.989 56.488 375.461 59.24C376.997 61.992 378.309 64.264 379.397 66.056C380.485 67.784 381.061 68.712 381.125 68.84ZM382.565 62.6C383.845 60.232 385.189 57.672 386.597 54.92C388.005 52.168 389.317 49.416 390.533 46.664C391.749 43.912 392.741 41.352 393.509 38.984C394.277 36.616 394.661 34.632 394.661 33.032C394.661 30.472 393.989 28.488 392.645 27.08C391.365 25.672 389.797 24.68 387.941 24.104C386.085 23.464 384.293 23.144 382.565 23.144C380.837 23.144 379.013 23.464 377.093 24.104C375.237 24.68 373.637 25.672 372.293 27.08C371.013 28.488 370.373 30.472 370.373 33.032C370.373 34.632 370.757 36.616 371.525 38.984C372.293 41.352 373.285 43.912 374.501 46.664C375.717 49.416 377.029 52.168 378.437 54.92C379.909 57.672 381.285 60.232 382.565 62.6ZM362.309 74.6C363.717 74.344 365.509 74.056 367.685 73.736C369.925 73.352 372.325 73.032 374.885 72.776C377.509 72.456 380.037 72.296 382.469 72.296C384.901 72.296 387.397 72.456 389.957 72.776C392.581 73.032 395.013 73.352 397.253 73.736C399.493 74.056 401.285 74.344 402.629 74.6V68.456C401.605 68.648 399.973 68.936 397.733 69.32C395.493 69.64 392.997 69.96 390.245 70.28C387.557 70.6 384.965 70.76 382.469 70.76C380.741 70.76 378.629 70.632 376.133 70.376C373.701 70.12 371.237 69.832 368.741 69.512C366.309 69.128 364.165 68.776 362.309 68.456V74.6ZM378.341 114.056H386.789C385.957 107.592 385.253 101 384.677 94.28C384.101 87.56 383.397 80.872 382.565 74.216L378.341 114.056Z" fill="black"/>
<path d="M498.354 330.728L496.626 329.384L498.45 326.888C499.09 326.056 499.666 325.32 500.178 324.68C500.69 323.976 501.906 323.624 503.826 323.624H516.69V300.968C516.69 299.112 516.562 296.936 516.306 294.44C516.114 291.944 515.794 289.352 515.346 286.664C514.898 283.912 514.29 281.384 513.522 279.08L506.418 270.536C504.306 268.04 502.61 265.512 501.33 262.952C500.05 260.328 499.41 257.032 499.41 253.064C499.41 249.992 499.666 246.76 500.178 243.368C500.754 239.912 501.682 236.424 502.962 232.904H526.002C527.026 235.464 527.89 238.248 528.594 241.256C529.362 244.2 529.81 247.176 529.938 250.184C531.986 250.824 534.194 251.88 536.562 253.352C538.93 254.76 540.818 256.104 542.226 257.384C544.082 258.088 545.618 258.984 546.834 260.072C548.05 261.096 549.074 262.216 549.906 263.432L594.354 325.832L589.554 329.96L576.786 317L582.066 328.424L562.674 326.792L553.17 308.36L548.178 305.384L550.002 315.176L548.274 315.944L540.594 311.816V323.624H549.906C551.826 323.624 553.042 323.976 553.554 324.68C554.066 325.32 554.61 326.056 555.186 326.888L557.106 329.384L555.186 330.728L554.034 329H519.282L518.034 330.728L516.306 329.384L516.594 329H499.602L498.354 330.728ZM520.53 327.368H552.882L551.346 325.256H540.978L538.77 323.624V310.28L539.634 309.032L547.698 313.352L545.874 303.464L547.026 302.504L554.802 307.112L564.114 324.968L578.802 326.216L572.946 313.256L528.594 279.848C527.506 279.016 526.162 277.992 524.562 276.776C523.026 275.496 521.65 273.96 520.434 272.168C519.218 270.376 518.61 268.2 518.61 265.64C518.61 263.144 519.378 261.224 520.914 259.88C522.45 258.472 524.338 257.48 526.578 256.904C528.882 256.328 531.122 256.04 533.298 256.04C534.898 256.04 536.402 256.136 537.81 256.328C536.21 255.304 534.482 254.312 532.626 253.352C530.834 252.392 529.298 251.688 528.018 251.24C528.018 248.552 527.666 245.704 526.962 242.696C526.322 239.624 525.554 237 524.658 234.824H504.306C503.218 238.088 502.418 241.288 501.906 244.424C501.458 247.56 501.234 250.632 501.234 253.64C501.234 256.2 501.618 258.472 502.386 260.456C503.154 262.376 504.05 264.072 505.074 265.544C506.098 266.952 506.994 268.168 507.762 269.192L529.842 295.976C531.826 298.344 533.17 300.712 533.874 303.08C534.642 305.384 535.026 308.104 535.026 311.24V323.624L533.01 325.256H521.97L520.53 327.368ZM521.106 246.056C520.146 246.056 519.346 245.736 518.706 245.096C518.066 244.456 517.746 243.656 517.746 242.696C517.746 241.8 518.066 241.032 518.706 240.392C519.346 239.688 520.146 239.336 521.106 239.336C522.002 239.336 522.77 239.688 523.41 240.392C524.05 241.032 524.37 241.8 524.37 242.696C524.37 243.656 524.05 244.456 523.41 245.096C522.77 245.736 522.002 246.056 521.106 246.056ZM507.954 246.056C506.994 246.056 506.194 245.736 505.554 245.096C504.914 244.456 504.594 243.656 504.594 242.696C504.594 241.8 504.914 241.032 505.554 240.392C506.194 239.688 506.994 239.336 507.954 239.336C508.85 239.336 509.618 239.688 510.258 240.392C510.962 241.032 511.314 241.8 511.314 242.696C511.314 243.656 510.962 244.456 510.258 245.096C509.618 245.736 508.85 246.056 507.954 246.056ZM521.106 244.52C521.554 244.52 521.938 244.328 522.258 243.944C522.642 243.56 522.834 243.144 522.834 242.696C522.834 242.184 522.642 241.768 522.258 241.448C521.938 241.128 521.554 240.968 521.106 240.968C519.89 240.968 519.282 241.544 519.282 242.696C519.282 243.144 519.442 243.56 519.762 243.944C520.146 244.328 520.594 244.52 521.106 244.52ZM507.954 244.52C508.466 244.52 508.882 244.328 509.202 243.944C509.586 243.56 509.778 243.144 509.778 242.696C509.778 242.184 509.586 241.768 509.202 241.448C508.882 241.128 508.466 240.968 507.954 240.968C507.506 240.968 507.09 241.128 506.706 241.448C506.322 241.768 506.13 242.184 506.13 242.696C506.13 243.144 506.322 243.56 506.706 243.944C507.09 244.328 507.506 244.52 507.954 244.52ZM513.81 254.696L510.642 246.152L512.37 245.48L514.578 251.432L516.402 245.48L518.034 245.96L515.346 254.696H513.81ZM589.746 327.56L592.05 325.448L548.466 264.584C547.058 262.536 545.17 260.904 542.802 259.688C540.498 258.408 537.49 257.768 533.778 257.768C531.73 257.768 529.682 257.992 527.634 258.44C525.586 258.888 523.858 259.72 522.45 260.936C521.106 262.088 520.434 263.752 520.434 265.928C520.434 268.552 521.362 270.824 523.218 272.744C525.138 274.6 527.506 276.616 530.322 278.792L574.482 311.816L589.746 327.56ZM500.85 327.368H517.842L518.13 326.888C518.642 326.184 519.122 325.512 519.57 324.872C520.018 324.232 520.946 323.848 522.354 323.72V306.728L523.986 305.48L533.106 312.968V311.144C533.106 307.88 532.722 305.192 531.954 303.08C531.186 300.904 530.034 298.92 528.498 297.128L516.306 282.536C517.138 285.224 517.714 288.072 518.034 291.08C518.418 294.024 518.61 297.096 518.61 300.296V323.624L516.594 325.256H502.29L500.85 327.368ZM524.178 323.624H533.106V315.56L524.178 308.264V323.624Z" fill="black"/>
<path d="M641.719 326.776L634.807 318.232L628.087 326.104H619.735L634.999 308.056L641.623 316.12L647.767 307.96L654.103 316.024L659.959 307.96L666.487 316.12L672.535 307.96L678.583 316.12L685.015 307.96L690.871 316.12L697.207 307.96L703.351 316.12L709.975 308.056L725.239 326.104H716.983L710.167 318.232L703.255 326.776L697.015 318.328L690.871 326.776L684.823 318.328L678.583 326.776L672.535 318.328L666.487 326.776L660.247 318.328L654.199 326.776L647.959 318.328L641.719 326.776ZM623.671 324.28H627.223L634.903 315.256L641.623 323.608L647.959 315.16L654.199 323.512L660.247 315.16L666.487 323.512L672.535 315.16L678.583 323.512L684.823 315.16L690.871 323.512L697.015 315.16L703.351 323.608L710.071 315.256L717.751 324.28H721.207L709.975 311.032L703.255 319.096L697.207 311.032L690.775 319.192L684.919 311.032L678.583 319.192L672.535 311.032L666.487 319.192L660.055 311.128L654.199 319.192L647.767 311.032L641.719 319.096L634.999 311.032L623.671 324.28Z" fill="black"/>
<path d="M46.829 117.608V115.4C46.829 113.48 47.277 111.24 48.173 108.68C49.133 106.056 50.637 103.496 52.685 101C54.733 98.504 57.389 96.424 60.653 94.76C63.917 93.096 67.853 92.264 72.461 92.264C77.133 92.264 81.101 93.096 84.365 94.76C87.629 96.424 90.285 98.504 92.333 101C94.381 103.496 95.853 106.056 96.749 108.68C97.709 111.24 98.189 113.48 98.189 115.4V117.608H46.829ZM48.653 115.688H96.269C96.269 113.96 95.821 111.912 94.925 109.544C94.093 107.112 92.749 104.712 90.893 102.344C89.037 99.976 86.573 98.024 83.501 96.488C80.493 94.888 76.813 94.088 72.461 94.088C68.109 94.088 64.397 94.888 61.325 96.488C58.317 98.024 55.885 99.976 54.029 102.344C52.173 104.712 50.797 107.112 49.901 109.544C49.069 111.912 48.653 113.96 48.653 115.688Z" fill="black"/>
<path d="M981.719 113.776L974.807 105.232L968.087 113.104H959.735L974.999 95.056L981.623 103.12L987.767 94.96L994.103 103.024L999.959 94.96L1006.49 103.12L1012.54 94.96L1018.58 103.12L1025.02 94.96L1030.87 103.12L1037.21 94.96L1043.35 103.12L1049.98 95.056L1065.24 113.104H1056.98L1050.17 105.232L1043.26 113.776L1037.02 105.328L1030.87 113.776L1024.82 105.328L1018.58 113.776L1012.54 105.328L1006.49 113.776L1000.25 105.328L994.199 113.776L987.959 105.328L981.719 113.776ZM963.671 111.28H967.223L974.903 102.256L981.623 110.608L987.959 102.16L994.199 110.512L1000.25 102.16L1006.49 110.512L1012.54 102.16L1018.58 110.512L1024.82 102.16L1030.87 110.512L1037.02 102.16L1043.35 110.608L1050.07 102.256L1057.75 111.28H1061.21L1049.98 98.032L1043.26 106.096L1037.21 98.032L1030.78 106.192L1024.92 98.032L1018.58 106.192L1012.54 98.032L1006.49 106.192L1000.06 98.128L994.199 106.192L987.767 98.032L981.719 106.096L974.999 98.032L963.671 111.28Z" fill="black"/>
<path d="M960.86 59.608V32.824H966.14V23.896H974.3V32.824H980.732V23.896H988.892V32.824H995.324V23.896H1003.48V32.824H1009.92V23.896H1018.08V32.824H1024.41V23.896H1032.67V32.824H1039V23.896H1047.26V32.824H1053.6V23.896H1061.85V32.824H1067.13V59.608H960.86ZM968.06 32.824H972.476V25.816H968.06V32.824ZM982.556 32.824H987.068V25.816H982.556V32.824ZM997.148 32.824H1001.66V25.816H997.148V32.824ZM1011.74 32.824H1016.16V25.816H1011.74V32.824ZM1026.33 32.824H1030.75V25.816H1026.33V32.824ZM1040.92 32.824H1045.34V25.816H1040.92V32.824ZM1055.52 32.824H1059.93V25.816H1055.52V32.824ZM962.684 57.688H1065.21V34.648H962.684V57.688Z" fill="black"/>
<path d="M174.719 46.776L167.807 38.232L161.087 46.104H152.735L167.999 28.056L174.623 36.12L180.767 27.96L187.103 36.024L192.959 27.96L199.487 36.12L205.535 27.96L211.583 36.12L218.015 27.96L223.871 36.12L230.207 27.96L236.351 36.12L242.975 28.056L258.239 46.104H249.983L243.167 38.232L236.255 46.776L230.015 38.328L223.871 46.776L217.823 38.328L211.583 46.776L205.535 38.328L199.487 46.776L193.247 38.328L187.199 46.776L180.959 38.328L174.719 46.776ZM156.671 44.28H160.223L167.903 35.256L174.623 43.608L180.959 35.16L187.199 43.512L193.247 35.16L199.487 43.512L205.535 35.16L211.583 43.512L217.823 35.16L223.871 43.512L230.015 35.16L236.351 43.608L243.071 35.256L250.751 44.28H254.207L242.975 31.032L236.255 39.096L230.207 31.032L223.775 39.192L217.919 31.032L211.583 39.192L205.535 31.032L199.487 39.192L193.055 31.128L187.199 39.192L180.767 31.032L174.719 39.096L167.999 31.032L156.671 44.28Z" fill="black"/>
<path d="M196.185 112.04V108.008H158.553V101.576H196.185V97.832H202.809V101.576H206.937V97.832H213.561V101.576H251.193V108.008H213.561V112.04H206.937V108.008H202.809V112.04H196.185ZM198.009 110.12H200.889V106.184H208.857V110.12H211.641V106.184H249.273V103.4H211.641V99.752H208.857V103.4H200.889V99.752H198.009V103.4H160.473V106.184H198.009V110.12Z" fill="black"/>
<path d="M167.185 328.04V324.008H129.553V317.576H167.185V313.832H173.809V317.576H177.937V313.832H184.561V317.576H222.193V324.008H184.561V328.04H177.937V324.008H173.809V328.04H167.185ZM169.009 326.12H171.889V322.184H179.857V326.12H182.641V322.184H220.273V319.4H182.641V315.752H179.857V319.4H171.889V315.752H169.009V319.4H131.473V322.184H169.009V326.12Z" fill="black"/>
<path d="M809.172 58.648C808.724 57.304 807.604 55.928 805.812 54.52C804.02 53.112 801.812 51.8 799.188 50.584C796.564 49.368 793.684 48.376 790.548 47.608V42.52C793.684 41.688 796.564 40.696 799.188 39.544C801.812 38.328 804.02 37.016 805.812 35.608C807.604 34.2 808.724 32.824 809.172 31.48H812.052C813.588 34.424 815.828 36.696 818.772 38.296C821.78 39.896 825.236 40.696 829.14 40.696C829.908 40.696 831.38 40.568 833.556 40.312C835.732 40.056 838.388 39.736 841.524 39.352C844.66 38.904 848.02 38.456 851.604 38.008C855.572 37.432 859.828 36.824 864.372 36.184C868.916 35.544 873.332 35 877.62 34.552C881.908 34.104 885.684 33.912 888.948 33.976C895.284 34.04 900.116 34.968 903.444 36.76C906.772 38.488 908.436 41.24 908.436 45.016C908.436 48.792 906.772 51.576 903.444 53.368C900.116 55.16 895.284 56.088 888.948 56.152C885.684 56.152 881.908 55.928 877.62 55.48C873.332 55.096 868.916 54.584 864.372 53.944C859.828 53.24 855.572 52.632 851.604 52.12C848.02 51.608 844.66 51.16 841.524 50.776C838.388 50.392 835.732 50.072 833.556 49.816C831.38 49.56 829.908 49.432 829.14 49.432C825.236 49.432 821.78 50.232 818.772 51.832C815.828 53.432 813.588 55.704 812.052 58.648H809.172ZM811.284 56.056C812.052 54.84 813.172 53.592 814.644 52.312C816.18 50.968 818.132 49.848 820.5 48.952C822.932 47.992 825.812 47.512 829.14 47.512C829.972 47.512 831.508 47.64 833.748 47.896C836.052 48.152 838.772 48.504 841.908 48.952C845.108 49.336 848.436 49.784 851.892 50.296C856.564 50.872 861.3 51.48 866.1 52.12C870.9 52.76 875.316 53.304 879.348 53.752C883.38 54.136 886.58 54.328 888.948 54.328C894.196 54.264 898.42 53.496 901.62 52.024C904.884 50.552 906.516 48.216 906.516 45.016C906.516 41.816 904.884 39.512 901.62 38.104C898.42 36.632 894.196 35.864 888.948 35.8C886.58 35.8 883.38 36.024 879.348 36.472C875.316 36.856 870.9 37.368 866.1 38.008C861.3 38.584 856.564 39.192 851.892 39.832C848.436 40.28 845.108 40.728 841.908 41.176C838.772 41.624 836.052 41.976 833.748 42.232C831.508 42.488 829.972 42.616 829.14 42.616C825.812 42.616 822.932 42.168 820.5 41.272C818.132 40.312 816.18 39.16 814.644 37.816C813.172 36.472 812.052 35.224 811.284 34.072C810.772 35.864 810.356 37.656 810.036 39.448C809.78 41.24 809.652 43.096 809.652 45.016C809.652 47 809.78 48.888 810.036 50.68C810.356 52.408 810.772 54.2 811.284 56.056ZM809.076 54.904C808.244 51.64 807.828 48.344 807.828 45.016C807.828 41.752 808.244 38.488 809.076 35.224C807.476 36.888 805.172 38.488 802.164 40.024C799.22 41.56 795.956 42.84 792.372 43.864V46.264C795.956 47.288 799.22 48.568 802.164 50.104C805.172 51.64 807.476 53.24 809.076 54.904Z" fill="black"/>
<path d="M823.829 117.608V115.4C823.829 113.48 824.277 111.24 825.173 108.68C826.133 106.056 827.637 103.496 829.685 101C831.733 98.504 834.389 96.424 837.653 94.76C840.917 93.096 844.853 92.264 849.461 92.264C854.133 92.264 858.101 93.096 861.365 94.76C864.629 96.424 867.285 98.504 869.333 101C871.381 103.496 872.853 106.056 873.749 108.68C874.709 111.24 875.189 113.48 875.189 115.4V117.608H823.829ZM825.653 115.688H873.269C873.269 113.96 872.821 111.912 871.925 109.544C871.093 107.112 869.749 104.712 867.893 102.344C866.037 99.976 863.573 98.024 860.501 96.488C857.493 94.888 853.813 94.088 849.461 94.088C845.109 94.088 841.397 94.888 838.325 96.488C835.317 98.024 832.885 99.976 831.029 102.344C829.173 104.712 827.797 107.112 826.901 109.544C826.069 111.912 825.653 113.96 825.653 115.688Z" fill="black"/>
<path d="M520.829 48.608V46.4C520.829 44.48 521.277 42.24 522.173 39.68C523.133 37.056 524.637 34.496 526.685 32C528.733 29.504 531.389 27.424 534.653 25.76C537.917 24.096 541.853 23.264 546.461 23.264C551.133 23.264 555.101 24.096 558.365 25.76C561.629 27.424 564.285 29.504 566.333 32C568.381 34.496 569.853 37.056 570.749 39.68C571.709 42.24 572.189 44.48 572.189 46.4V48.608H520.829ZM522.653 46.688H570.269C570.269 44.96 569.821 42.912 568.925 40.544C568.093 38.112 566.749 35.712 564.893 33.344C563.037 30.976 560.573 29.024 557.501 27.488C554.493 25.888 550.813 25.088 546.461 25.088C542.109 25.088 538.397 25.888 535.325 27.488C532.317 29.024 529.885 30.976 528.029 33.344C526.173 35.712 524.797 38.112 523.901 40.544C523.069 42.912 522.653 44.96 522.653 46.688Z" fill="black"/>
<path d="M969 310C969 315.079 967.644 319.632 965.503 322.885C963.358 326.147 960.507 328 957.5 328C954.493 328 951.642 326.147 949.497 322.885C947.356 319.632 946 315.079 946 310C946 304.921 947.356 300.368 949.497 297.115C951.642 293.853 954.493 292 957.5 292C960.507 292 963.358 293.853 965.503 297.115C967.644 300.368 969 304.921 969 310Z" stroke="black" stroke-width="2"/>
<line x1="958" y1="292" x2="958" y2="233" stroke="black" stroke-width="2"/>
<line x1="950" y1="238" x2="967" y2="238" stroke="black" stroke-width="2"/>
<line x1="950" y1="243" x2="967" y2="243" stroke="black" stroke-width="2"/>
<path d="M944 98C944 103.079 942.644 107.632 940.503 110.885C938.358 114.147 935.507 116 932.5 116C929.493 116 926.642 114.147 924.497 110.885C922.356 107.632 921 103.079 921 98C921 92.9205 922.356 88.3677 924.497 85.1146C926.642 81.8532 929.493 80 932.5 80C935.507 80 938.358 81.8532 940.503 85.1146C942.644 88.3677 944 92.9205 944 98Z" stroke="black" stroke-width="2"/>
<line x1="933" y1="80" x2="933" y2="21" stroke="black" stroke-width="2"/>
<line x1="925" y1="26" x2="942" y2="26" stroke="black" stroke-width="2"/>
<line x1="925" y1="31" x2="942" y2="31" stroke="black" stroke-width="2"/>
<line x1="60" y1="329" x2="60" y2="258" stroke="black" stroke-width="2"/>
<line x1="47" y1="259" x2="74" y2="259" stroke="black" stroke-width="2"/>
<line x1="48.3335" y1="276.933" x2="59.4842" y2="259.462" stroke="black" stroke-width="2"/>
<line y1="-1" x2="20.7257" y2="-1" transform="matrix(-0.538012 -0.842937 -0.842937 0.538012 70.2684 277.471)" stroke="black" stroke-width="2"/>
<path d="M60 233C53.9105 240.333 47.8957 256 60 256C72.1043 256 66.0895 240.333 60 233Z" stroke="black" stroke-width="2"/>
<circle cx="70.5" cy="255.5" r="1.5" fill="black"/>
<circle cx="49.5" cy="255.5" r="1.5" fill="black"/>
<path d="M88.2429 298.384C85.5549 296.272 82.4109 292.84 82.4109 287.68C82.4109 282.976 85.5549 279.232 88.2429 277.12L88.867 277.792C86.6109 280.144 84.7869 283.48 84.7869 287.272C84.7869 292.288 86.6109 295.36 88.867 297.712L88.2429 298.384Z" fill="#646464"/>
<path d="M92.6854 290.152V286.192C94.5814 285.592 96.6694 284.32 96.6694 281.872C96.6694 279.976 95.3494 279.064 94.0054 279.064C93.0934 279.064 92.8294 279.208 92.7094 280.048C92.5654 281.032 92.1574 281.488 91.3174 281.488C90.4054 281.488 90.0454 280.864 90.0454 280.24C90.0454 278.8 91.7734 278.08 93.5734 278.08C96.7174 278.08 98.7814 279.592 98.7814 282.664C98.7814 285.352 96.6694 287.08 93.9334 287.944V290.152H92.6854ZM93.3334 295.144C92.3734 295.144 91.6054 294.4 91.6054 293.464C91.6054 292.528 92.3734 291.76 93.3334 291.76C94.3174 291.76 95.0854 292.528 95.0854 293.464C95.0854 294.4 94.3174 295.144 93.3334 295.144Z" fill="#646464"/>
<path d="M100.755 277.12C103.443 279.232 106.587 282.64 106.587 287.8C106.587 292.504 103.443 296.272 100.755 298.384L100.131 297.712C102.387 295.36 104.211 292.024 104.211 288.232C104.211 283.216 102.387 280.144 100.131 277.792L100.755 277.12Z" fill="#646464"/>
<line x1="739" y1="274" x2="797" y2="274" stroke="black" stroke-width="2"/>
<path d="M768 273C768 266.558 761.556 263.338 756.722 261.727C752.266 260.243 739 259.16 739 246.429C739 231.935 752.548 231.586 757.528 234.351C764.778 238.377 764.778 249.65 755.111 249.65C750.278 249.65 749.955 247.556 748.667 245.624" stroke="black" stroke-width="2"/>
<path d="M768 273C768 266.558 774.444 263.338 779.278 261.727C783.734 260.243 797 259.16 797 246.429C797 231.935 783.452 231.586 778.472 234.351C771.222 238.377 771.222 249.65 780.889 249.65C785.722 249.65 786.045 247.556 787.333 245.624" stroke="black" stroke-width="2"/>
<line x1="768" y1="329" x2="768" y2="270" stroke="black" stroke-width="2"/>
<path d="M139.511 272.115L139.535 272.125H139.561H149.641H149.653L149.665 272.123L157.573 270.613H226.033H226.097L226.134 270.562L228.294 267.61L228.32 267.575L228.318 267.531L226.806 230.235L226.801 230.115H226.681H215.233H215.116L215.108 230.232L213.24 259.695L212.456 260.283L190.395 259.995L190.395 259.995L190.386 259.995L157.009 261.866L151.637 259.43L151.605 259.416L151.57 259.42L149.951 259.622L142.13 228.769L142.106 228.675H142.009H139.633H139.537L139.512 228.768L130.989 261.287L129.19 260.088L129.088 260.02L129.018 260.121L126.714 263.433L126.654 263.52L126.73 263.594L132.346 268.994L132.363 269.01L132.383 269.019L139.511 272.115ZM135.617 264.424L135.609 264.415L135.598 264.408L132.433 262.298L140.881 230.293H140.903L149.774 265.774L145.991 266.246L142.202 251.449L142.178 251.355H142.081H140.065H139.969L139.944 251.448L136.383 264.839C136.236 264.774 136.089 264.723 135.941 264.684C135.81 264.596 135.703 264.509 135.617 264.424ZM157.345 268.923H157.333L157.321 268.925L149.557 270.435H139.804L133.222 267.502L128.639 263.342L129.369 262.308L134.595 265.84L134.596 265.84C135.187 266.234 136.208 266.67 137.65 267.151L137.651 267.151C139.141 267.632 140.488 268.017 141.692 268.306L141.715 268.311L141.738 268.308L144.399 267.948L150.876 267.373L150.929 267.368L150.962 267.327L151.61 266.535L151.65 266.486L151.634 266.425L150.301 261.232L151.136 261.113L156.359 263.403L156.386 263.414L156.416 263.413L190.323 261.613L213.287 261.973L213.334 261.974L213.37 261.943L214.81 260.719L214.85 260.685L214.854 260.632L216.718 231.733H225.265L226.698 266.922L225.249 268.923H157.345ZM137.841 265.366L141.139 253.413L144.372 266.415L141.875 266.618L141.859 266.614L141.751 266.587L141.323 266.48L137.841 265.366Z" fill="black" stroke="black" stroke-width="0.25"/>
<path d="M632.682 271.5L672.301 237.189V271.5H632.682Z" stroke="black" stroke-width="2"/>
</g>
<defs>
<clipPath id="clip0_3_2">
<rect width="1461" height="349" fill="white"/>
</clipPath>
</defs>
</svg>
