<svg width="186" height="137" viewBox="0 0 186 137" fill="none" xmlns="http://www.w3.org/2000/svg">
<g clip-path="url(#clip0_1_131)">
<path d="M1.93838 124.952L17.6824 22.232C18.1944 19.16 18.7064 16.696 19.2184 14.84C19.7944 12.92 20.8824 11.96 22.4824 11.96C24.0824 11.96 25.1704 12.92 25.7464 14.84C26.3224 16.696 26.8344 19.16 27.2824 22.232L43.1224 124.952H1.93838ZM4.14638 123.032H40.8184L25.3624 22.52C24.9144 19.512 24.4984 17.304 24.1144 15.896C23.7944 14.488 23.2504 13.784 22.4824 13.784C21.7784 13.784 21.2344 14.488 20.8504 15.896C20.5304 17.304 20.1144 19.512 19.6024 22.52L4.14638 123.032Z" fill="black"/>
<path d="M94.6775 105.579C90.0303 102.749 86.1945 99.5363 83.1702 95.9427C80.2012 92.381 78.0651 88.0809 76.7619 83.0422C76.4339 81.8182 76.0294 79.9589 75.5483 77.4641C75.1547 74.9459 74.6674 72.078 74.0863 68.8604C73.5053 65.6428 72.8017 62.3175 71.9755 58.8845C71.2367 55.428 70.3626 52.0781 69.353 48.8348C68.3988 45.6235 67.2803 42.7607 65.9976 40.2465C64.7234 37.5894 63.3458 34.9835 61.8648 32.4287C60.3838 29.8739 58.5659 27.1986 56.4112 24.4026C55.9615 23.7735 55.5481 23.0175 55.171 22.1347C54.8493 21.2839 54.9285 20.4427 55.4085 19.6114C55.8565 18.8354 56.4259 18.4251 57.1167 18.3806C57.895 18.3126 58.7275 18.5346 59.6143 19.0466C60.224 19.3986 60.8411 19.8658 61.4656 20.448C62.1776 21.0069 62.8298 21.6052 63.4224 22.2429C64.1492 23.032 65.2031 24.3425 66.5842 26.1745C67.9972 27.951 69.4485 30.0453 70.9381 32.4572C72.4597 34.8137 73.7628 37.2288 74.8472 39.7024C76.4899 43.3852 77.9418 47.1425 79.2028 50.9744C80.4958 54.7508 81.5991 58.3438 82.5127 61.7534C83.4583 65.1076 84.2314 67.9927 84.8318 70.4086C85.4643 72.7691 85.9531 74.4185 86.2982 75.3567C86.8862 77.0264 87.4273 78.5212 87.9215 79.8411C88.4477 81.1057 89.1488 82.3234 90.0248 83.4942C90.9007 84.665 92.2009 85.933 93.9254 87.2981C95.6818 88.6078 98.112 90.1587 101.216 91.9507L129.982 108.559L122.446 121.611L94.6775 105.579ZM96.3026 104.301L121.826 119.037L127.442 109.309L100.588 93.8054C97.2629 91.8854 94.6547 90.1949 92.764 88.7338C90.9052 87.2172 89.4707 85.7978 88.4605 84.4755C87.5057 83.1853 86.7535 81.8642 86.2038 80.5122C85.7096 79.1923 85.1525 77.7252 84.5326 76.1109C84.2195 75.1172 83.7232 73.3527 83.0439 70.8174C82.3646 68.282 81.5127 65.2776 80.4882 61.804C79.5192 58.3624 78.4159 54.7693 77.1783 51.0249C75.9407 47.2804 74.5911 43.73 73.1296 40.3735C72.124 38.0193 70.8998 35.7236 69.457 33.4866C68.0697 31.2815 66.6972 29.3067 65.3396 27.5621C64.014 25.7622 62.9046 24.4196 62.0115 23.5345C60.8265 22.2591 59.7074 21.3174 58.6543 20.7094C57.8229 20.2294 57.3112 20.1557 57.1192 20.4882C56.8952 20.8762 56.9207 21.4082 57.1955 22.0842C57.5257 22.7921 57.904 23.417 58.3303 23.9587C59.901 25.9741 61.4546 28.2752 62.9911 30.8619C64.6149 33.4253 66.2057 36.3021 67.7632 39.4923C69.014 42.0619 70.1004 44.9801 71.0226 48.2469C72.0322 51.4902 72.9341 54.8561 73.7283 58.3445C74.5225 61.833 75.2101 65.186 75.7911 68.4036C76.3722 71.6212 76.8872 74.5051 77.3363 77.0553C77.8173 79.5501 78.2219 81.4094 78.5498 82.6334C79.8936 87.4738 82.0106 91.6151 84.9007 95.0573C87.8462 98.5315 91.6469 101.613 96.3026 104.301Z" fill="black"/>
<path d="M143.677 105.579C139.03 102.749 135.195 99.5363 132.17 95.9427C129.201 92.381 127.065 88.0809 125.762 83.0422C125.434 81.8182 125.029 79.9589 124.548 77.4641C124.155 74.9459 123.667 72.078 123.086 68.8604C122.505 65.6428 121.802 62.3175 120.975 58.8845C120.237 55.428 119.363 52.0781 118.353 48.8348C117.399 45.6235 116.28 42.7607 114.998 40.2465C113.723 37.5894 112.346 34.9835 110.865 32.4287C109.384 29.8739 107.566 27.1986 105.411 24.4026C104.961 23.7735 104.548 23.0175 104.171 22.1347C103.849 21.2839 103.928 20.4427 104.408 19.6114C104.856 18.8354 105.426 18.4251 106.117 18.3806C106.895 18.3126 107.728 18.5346 108.614 19.0466C109.224 19.3986 109.841 19.8658 110.466 20.448C111.178 21.0069 111.83 21.6052 112.422 22.2429C113.149 23.032 114.203 24.3425 115.584 26.1745C116.997 27.951 118.449 30.0453 119.938 32.4572C121.46 34.8137 122.763 37.2288 123.847 39.7024C125.49 43.3852 126.942 47.1425 128.203 50.9744C129.496 54.7508 130.599 58.3438 131.513 61.7534C132.458 65.1076 133.231 67.9927 133.832 70.4086C134.464 72.7691 134.953 74.4185 135.298 75.3567C135.886 77.0264 136.427 78.5212 136.922 79.8411C137.448 81.1057 138.149 82.3234 139.025 83.4942C139.901 84.665 141.201 85.933 142.925 87.2981C144.682 88.6078 147.112 90.1587 150.216 91.9507L178.982 108.559L171.446 121.611L143.677 105.579ZM145.303 104.301L170.826 119.037L176.442 109.309L149.588 93.8054C146.263 91.8854 143.655 90.1949 141.764 88.7338C139.905 87.2172 138.471 85.7978 137.461 84.4755C136.506 83.1853 135.754 81.8642 135.204 80.5122C134.71 79.1923 134.153 77.7252 133.533 76.1109C133.219 75.1172 132.723 73.3527 132.044 70.8174C131.365 68.282 130.513 65.2776 129.488 61.804C128.519 58.3624 127.416 54.7693 126.178 51.0249C124.941 47.2804 123.591 43.73 122.13 40.3735C121.124 38.0193 119.9 35.7236 118.457 33.4866C117.07 31.2815 115.697 29.3067 114.34 27.5621C113.014 25.7622 111.905 24.4196 111.012 23.5345C109.826 22.2591 108.707 21.3174 107.654 20.7094C106.823 20.2294 106.311 20.1557 106.119 20.4882C105.895 20.8762 105.921 21.4082 106.195 22.0842C106.526 22.7921 106.904 23.417 107.33 23.9587C108.901 25.9741 110.455 28.2752 111.991 30.8619C113.615 33.4253 115.206 36.3021 116.763 39.4923C118.014 42.0619 119.1 44.9801 120.023 48.2469C121.032 51.4902 121.934 54.8561 122.728 58.3445C123.522 61.833 124.21 65.186 124.791 68.4036C125.372 71.6212 125.887 74.5051 126.336 77.0553C126.817 79.5501 127.222 81.4094 127.55 82.6334C128.894 87.4738 131.011 91.6151 133.901 95.0573C136.846 98.5315 140.647 101.613 145.303 104.301Z" fill="black"/>
</g>
<defs>
<clipPath id="clip0_1_131">
<rect width="186" height="137" fill="white"/>
</clipPath>
</defs>
</svg>
